G04 (created by PCBNEW-RS274X (2012-01-19 BZR 3256)-stable) date 07/10/2012 23:19:39*
G01*
G70*
G90*
%MOIN*%
G04 Gerber Fmt 3.4, Leading zero omitted, Abs format*
%FSLAX34Y34*%
G04 APERTURE LIST*
%ADD10C,0.006000*%
%ADD11C,0.015000*%
%ADD12C,0.008000*%
%ADD13C,0.010000*%
G04 APERTURE END LIST*
G54D10*
G54D11*
X07874Y-22047D02*
X07874Y-58268D01*
X156693Y-22047D02*
X07874Y-22047D01*
X156693Y-58268D02*
X156693Y-22047D01*
X07874Y-58268D02*
X156693Y-58268D01*
G54D12*
X148508Y-43917D02*
X148308Y-43917D01*
X145508Y-43917D02*
X145708Y-43917D01*
X145708Y-43917D02*
X145708Y-44317D01*
X145708Y-44317D02*
X148308Y-44317D01*
X148308Y-44317D02*
X148308Y-43517D01*
X148308Y-43517D02*
X145708Y-43517D01*
X145708Y-43517D02*
X145708Y-43917D01*
X148308Y-44117D02*
X148108Y-44317D01*
G54D10*
X26495Y-23663D02*
X26495Y-22563D01*
X26495Y-22563D02*
X25395Y-22563D01*
X25395Y-22563D02*
X25395Y-23713D01*
X26495Y-24763D02*
X26495Y-25863D01*
X26495Y-25863D02*
X25395Y-25863D01*
X25395Y-25863D02*
X25395Y-24713D01*
X28385Y-46104D02*
X28385Y-45004D01*
X28385Y-45004D02*
X27285Y-45004D01*
X27285Y-45004D02*
X27285Y-46154D01*
X28385Y-47204D02*
X28385Y-48304D01*
X28385Y-48304D02*
X27285Y-48304D01*
X27285Y-48304D02*
X27285Y-47154D01*
X32125Y-38623D02*
X32125Y-37523D01*
X32125Y-37523D02*
X31025Y-37523D01*
X31025Y-37523D02*
X31025Y-38673D01*
X32125Y-39723D02*
X32125Y-40823D01*
X32125Y-40823D02*
X31025Y-40823D01*
X31025Y-40823D02*
X31025Y-39673D01*
X47085Y-38623D02*
X47085Y-37523D01*
X47085Y-37523D02*
X45985Y-37523D01*
X45985Y-37523D02*
X45985Y-38673D01*
X47085Y-39723D02*
X47085Y-40823D01*
X47085Y-40823D02*
X45985Y-40823D01*
X45985Y-40823D02*
X45985Y-39673D01*
X62046Y-38623D02*
X62046Y-37523D01*
X62046Y-37523D02*
X60946Y-37523D01*
X60946Y-37523D02*
X60946Y-38673D01*
X62046Y-39723D02*
X62046Y-40823D01*
X62046Y-40823D02*
X60946Y-40823D01*
X60946Y-40823D02*
X60946Y-39673D01*
X77007Y-38623D02*
X77007Y-37523D01*
X77007Y-37523D02*
X75907Y-37523D01*
X75907Y-37523D02*
X75907Y-38673D01*
X77007Y-39723D02*
X77007Y-40823D01*
X77007Y-40823D02*
X75907Y-40823D01*
X75907Y-40823D02*
X75907Y-39673D01*
X91967Y-38623D02*
X91967Y-37523D01*
X91967Y-37523D02*
X90867Y-37523D01*
X90867Y-37523D02*
X90867Y-38673D01*
X91967Y-39723D02*
X91967Y-40823D01*
X91967Y-40823D02*
X90867Y-40823D01*
X90867Y-40823D02*
X90867Y-39673D01*
X106928Y-38623D02*
X106928Y-37523D01*
X106928Y-37523D02*
X105828Y-37523D01*
X105828Y-37523D02*
X105828Y-38673D01*
X106928Y-39723D02*
X106928Y-40823D01*
X106928Y-40823D02*
X105828Y-40823D01*
X105828Y-40823D02*
X105828Y-39673D01*
X125629Y-44467D02*
X126729Y-44467D01*
X126729Y-44467D02*
X126729Y-43367D01*
X126729Y-43367D02*
X125579Y-43367D01*
X124529Y-44467D02*
X123429Y-44467D01*
X123429Y-44467D02*
X123429Y-43367D01*
X123429Y-43367D02*
X124579Y-43367D01*
X17164Y-38623D02*
X17164Y-37523D01*
X17164Y-37523D02*
X16064Y-37523D01*
X16064Y-37523D02*
X16064Y-38673D01*
X17164Y-39723D02*
X17164Y-40823D01*
X17164Y-40823D02*
X16064Y-40823D01*
X16064Y-40823D02*
X16064Y-39673D01*
X22755Y-31143D02*
X22755Y-30043D01*
X22755Y-30043D02*
X21655Y-30043D01*
X21655Y-30043D02*
X21655Y-31193D01*
X22755Y-32243D02*
X22755Y-33343D01*
X22755Y-33343D02*
X21655Y-33343D01*
X21655Y-33343D02*
X21655Y-32193D01*
X43345Y-46104D02*
X43345Y-45004D01*
X43345Y-45004D02*
X42245Y-45004D01*
X42245Y-45004D02*
X42245Y-46154D01*
X43345Y-47204D02*
X43345Y-48304D01*
X43345Y-48304D02*
X42245Y-48304D01*
X42245Y-48304D02*
X42245Y-47154D01*
X58306Y-46104D02*
X58306Y-45004D01*
X58306Y-45004D02*
X57206Y-45004D01*
X57206Y-45004D02*
X57206Y-46154D01*
X58306Y-47204D02*
X58306Y-48304D01*
X58306Y-48304D02*
X57206Y-48304D01*
X57206Y-48304D02*
X57206Y-47154D01*
X73267Y-46104D02*
X73267Y-45004D01*
X73267Y-45004D02*
X72167Y-45004D01*
X72167Y-45004D02*
X72167Y-46154D01*
X73267Y-47204D02*
X73267Y-48304D01*
X73267Y-48304D02*
X72167Y-48304D01*
X72167Y-48304D02*
X72167Y-47154D01*
X88227Y-46104D02*
X88227Y-45004D01*
X88227Y-45004D02*
X87127Y-45004D01*
X87127Y-45004D02*
X87127Y-46154D01*
X88227Y-47204D02*
X88227Y-48304D01*
X88227Y-48304D02*
X87127Y-48304D01*
X87127Y-48304D02*
X87127Y-47154D01*
X103188Y-46104D02*
X103188Y-45004D01*
X103188Y-45004D02*
X102088Y-45004D01*
X102088Y-45004D02*
X102088Y-46154D01*
X103188Y-47204D02*
X103188Y-48304D01*
X103188Y-48304D02*
X102088Y-48304D01*
X102088Y-48304D02*
X102088Y-47154D01*
X121889Y-46104D02*
X121889Y-45004D01*
X121889Y-45004D02*
X120789Y-45004D01*
X120789Y-45004D02*
X120789Y-46154D01*
X121889Y-47204D02*
X121889Y-48304D01*
X121889Y-48304D02*
X120789Y-48304D01*
X120789Y-48304D02*
X120789Y-47154D01*
X67715Y-53584D02*
X67715Y-52484D01*
X67715Y-52484D02*
X66615Y-52484D01*
X66615Y-52484D02*
X66615Y-53634D01*
X67715Y-54684D02*
X67715Y-55784D01*
X67715Y-55784D02*
X66615Y-55784D01*
X66615Y-55784D02*
X66615Y-54634D01*
X117757Y-53503D02*
X117757Y-54603D01*
X117757Y-54603D02*
X118857Y-54603D01*
X118857Y-54603D02*
X118857Y-53453D01*
X117757Y-52403D02*
X117757Y-51303D01*
X117757Y-51303D02*
X118857Y-51303D01*
X118857Y-51303D02*
X118857Y-52453D01*
X122777Y-35887D02*
X121677Y-35887D01*
X121677Y-35887D02*
X121677Y-36987D01*
X121677Y-36987D02*
X122827Y-36987D01*
X123877Y-35887D02*
X124977Y-35887D01*
X124977Y-35887D02*
X124977Y-36987D01*
X124977Y-36987D02*
X123827Y-36987D01*
X112519Y-31143D02*
X112519Y-30043D01*
X112519Y-30043D02*
X111419Y-30043D01*
X111419Y-30043D02*
X111419Y-31193D01*
X112519Y-32243D02*
X112519Y-33343D01*
X112519Y-33343D02*
X111419Y-33343D01*
X111419Y-33343D02*
X111419Y-32193D01*
X97558Y-31143D02*
X97558Y-30043D01*
X97558Y-30043D02*
X96458Y-30043D01*
X96458Y-30043D02*
X96458Y-31193D01*
X97558Y-32243D02*
X97558Y-33343D01*
X97558Y-33343D02*
X96458Y-33343D01*
X96458Y-33343D02*
X96458Y-32193D01*
X82597Y-31143D02*
X82597Y-30043D01*
X82597Y-30043D02*
X81497Y-30043D01*
X81497Y-30043D02*
X81497Y-31193D01*
X82597Y-32243D02*
X82597Y-33343D01*
X82597Y-33343D02*
X81497Y-33343D01*
X81497Y-33343D02*
X81497Y-32193D01*
X67637Y-31143D02*
X67637Y-30043D01*
X67637Y-30043D02*
X66537Y-30043D01*
X66537Y-30043D02*
X66537Y-31193D01*
X67637Y-32243D02*
X67637Y-33343D01*
X67637Y-33343D02*
X66537Y-33343D01*
X66537Y-33343D02*
X66537Y-32193D01*
X52676Y-31143D02*
X52676Y-30043D01*
X52676Y-30043D02*
X51576Y-30043D01*
X51576Y-30043D02*
X51576Y-31193D01*
X52676Y-32243D02*
X52676Y-33343D01*
X52676Y-33343D02*
X51576Y-33343D01*
X51576Y-33343D02*
X51576Y-32193D01*
X37715Y-31143D02*
X37715Y-30043D01*
X37715Y-30043D02*
X36615Y-30043D01*
X36615Y-30043D02*
X36615Y-31193D01*
X37715Y-32243D02*
X37715Y-33343D01*
X37715Y-33343D02*
X36615Y-33343D01*
X36615Y-33343D02*
X36615Y-32193D01*
X19015Y-23663D02*
X19015Y-22563D01*
X19015Y-22563D02*
X17915Y-22563D01*
X17915Y-22563D02*
X17915Y-23713D01*
X19015Y-24763D02*
X19015Y-25863D01*
X19015Y-25863D02*
X17915Y-25863D01*
X17915Y-25863D02*
X17915Y-24713D01*
X127519Y-29487D02*
X128619Y-29487D01*
X128619Y-29487D02*
X128619Y-28387D01*
X128619Y-28387D02*
X127469Y-28387D01*
X126419Y-29487D02*
X125319Y-29487D01*
X125319Y-29487D02*
X125319Y-28387D01*
X125319Y-28387D02*
X126469Y-28387D01*
X116259Y-23663D02*
X116259Y-22563D01*
X116259Y-22563D02*
X115159Y-22563D01*
X115159Y-22563D02*
X115159Y-23713D01*
X116259Y-24763D02*
X116259Y-25863D01*
X116259Y-25863D02*
X115159Y-25863D01*
X115159Y-25863D02*
X115159Y-24713D01*
X101298Y-23663D02*
X101298Y-22563D01*
X101298Y-22563D02*
X100198Y-22563D01*
X100198Y-22563D02*
X100198Y-23713D01*
X101298Y-24763D02*
X101298Y-25863D01*
X101298Y-25863D02*
X100198Y-25863D01*
X100198Y-25863D02*
X100198Y-24713D01*
X86337Y-23663D02*
X86337Y-22563D01*
X86337Y-22563D02*
X85237Y-22563D01*
X85237Y-22563D02*
X85237Y-23713D01*
X86337Y-24763D02*
X86337Y-25863D01*
X86337Y-25863D02*
X85237Y-25863D01*
X85237Y-25863D02*
X85237Y-24713D01*
X71377Y-23663D02*
X71377Y-22563D01*
X71377Y-22563D02*
X70277Y-22563D01*
X70277Y-22563D02*
X70277Y-23713D01*
X71377Y-24763D02*
X71377Y-25863D01*
X71377Y-25863D02*
X70277Y-25863D01*
X70277Y-25863D02*
X70277Y-24713D01*
X56416Y-23663D02*
X56416Y-22563D01*
X56416Y-22563D02*
X55316Y-22563D01*
X55316Y-22563D02*
X55316Y-23713D01*
X56416Y-24763D02*
X56416Y-25863D01*
X56416Y-25863D02*
X55316Y-25863D01*
X55316Y-25863D02*
X55316Y-24713D01*
X41456Y-23663D02*
X41456Y-22563D01*
X41456Y-22563D02*
X40356Y-22563D01*
X40356Y-22563D02*
X40356Y-23713D01*
X41456Y-24763D02*
X41456Y-25863D01*
X41456Y-25863D02*
X40356Y-25863D01*
X40356Y-25863D02*
X40356Y-24713D01*
X35865Y-46104D02*
X35865Y-45004D01*
X35865Y-45004D02*
X34765Y-45004D01*
X34765Y-45004D02*
X34765Y-46154D01*
X35865Y-47204D02*
X35865Y-48304D01*
X35865Y-48304D02*
X34765Y-48304D01*
X34765Y-48304D02*
X34765Y-47154D01*
X24644Y-38623D02*
X24644Y-37523D01*
X24644Y-37523D02*
X23544Y-37523D01*
X23544Y-37523D02*
X23544Y-38673D01*
X24644Y-39723D02*
X24644Y-40823D01*
X24644Y-40823D02*
X23544Y-40823D01*
X23544Y-40823D02*
X23544Y-39673D01*
X143739Y-46104D02*
X143739Y-45004D01*
X143739Y-45004D02*
X142639Y-45004D01*
X142639Y-45004D02*
X142639Y-46154D01*
X143739Y-47204D02*
X143739Y-48304D01*
X143739Y-48304D02*
X142639Y-48304D01*
X142639Y-48304D02*
X142639Y-47154D01*
X123739Y-23663D02*
X123739Y-22563D01*
X123739Y-22563D02*
X122639Y-22563D01*
X122639Y-22563D02*
X122639Y-23713D01*
X123739Y-24763D02*
X123739Y-25863D01*
X123739Y-25863D02*
X122639Y-25863D01*
X122639Y-25863D02*
X122639Y-24713D01*
X108778Y-23663D02*
X108778Y-22563D01*
X108778Y-22563D02*
X107678Y-22563D01*
X107678Y-22563D02*
X107678Y-23713D01*
X108778Y-24763D02*
X108778Y-25863D01*
X108778Y-25863D02*
X107678Y-25863D01*
X107678Y-25863D02*
X107678Y-24713D01*
X93818Y-23663D02*
X93818Y-22563D01*
X93818Y-22563D02*
X92718Y-22563D01*
X92718Y-22563D02*
X92718Y-23713D01*
X93818Y-24763D02*
X93818Y-25863D01*
X93818Y-25863D02*
X92718Y-25863D01*
X92718Y-25863D02*
X92718Y-24713D01*
X78857Y-23663D02*
X78857Y-22563D01*
X78857Y-22563D02*
X77757Y-22563D01*
X77757Y-22563D02*
X77757Y-23713D01*
X78857Y-24763D02*
X78857Y-25863D01*
X78857Y-25863D02*
X77757Y-25863D01*
X77757Y-25863D02*
X77757Y-24713D01*
X63896Y-23663D02*
X63896Y-22563D01*
X63896Y-22563D02*
X62796Y-22563D01*
X62796Y-22563D02*
X62796Y-23713D01*
X63896Y-24763D02*
X63896Y-25863D01*
X63896Y-25863D02*
X62796Y-25863D01*
X62796Y-25863D02*
X62796Y-24713D01*
X48936Y-23663D02*
X48936Y-22563D01*
X48936Y-22563D02*
X47836Y-22563D01*
X47836Y-22563D02*
X47836Y-23713D01*
X48936Y-24763D02*
X48936Y-25863D01*
X48936Y-25863D02*
X47836Y-25863D01*
X47836Y-25863D02*
X47836Y-24713D01*
X33975Y-23663D02*
X33975Y-22563D01*
X33975Y-22563D02*
X32875Y-22563D01*
X32875Y-22563D02*
X32875Y-23713D01*
X33975Y-24763D02*
X33975Y-25863D01*
X33975Y-25863D02*
X32875Y-25863D01*
X32875Y-25863D02*
X32875Y-24713D01*
X143739Y-38623D02*
X143739Y-37523D01*
X143739Y-37523D02*
X142639Y-37523D01*
X142639Y-37523D02*
X142639Y-38673D01*
X143739Y-39723D02*
X143739Y-40823D01*
X143739Y-40823D02*
X142639Y-40823D01*
X142639Y-40823D02*
X142639Y-39673D01*
X119999Y-31143D02*
X119999Y-30043D01*
X119999Y-30043D02*
X118899Y-30043D01*
X118899Y-30043D02*
X118899Y-31193D01*
X119999Y-32243D02*
X119999Y-33343D01*
X119999Y-33343D02*
X118899Y-33343D01*
X118899Y-33343D02*
X118899Y-32193D01*
X105038Y-31143D02*
X105038Y-30043D01*
X105038Y-30043D02*
X103938Y-30043D01*
X103938Y-30043D02*
X103938Y-31193D01*
X105038Y-32243D02*
X105038Y-33343D01*
X105038Y-33343D02*
X103938Y-33343D01*
X103938Y-33343D02*
X103938Y-32193D01*
X90078Y-31143D02*
X90078Y-30043D01*
X90078Y-30043D02*
X88978Y-30043D01*
X88978Y-30043D02*
X88978Y-31193D01*
X90078Y-32243D02*
X90078Y-33343D01*
X90078Y-33343D02*
X88978Y-33343D01*
X88978Y-33343D02*
X88978Y-32193D01*
X75117Y-31143D02*
X75117Y-30043D01*
X75117Y-30043D02*
X74017Y-30043D01*
X74017Y-30043D02*
X74017Y-31193D01*
X75117Y-32243D02*
X75117Y-33343D01*
X75117Y-33343D02*
X74017Y-33343D01*
X74017Y-33343D02*
X74017Y-32193D01*
X60156Y-31143D02*
X60156Y-30043D01*
X60156Y-30043D02*
X59056Y-30043D01*
X59056Y-30043D02*
X59056Y-31193D01*
X60156Y-32243D02*
X60156Y-33343D01*
X60156Y-33343D02*
X59056Y-33343D01*
X59056Y-33343D02*
X59056Y-32193D01*
X45196Y-31143D02*
X45196Y-30043D01*
X45196Y-30043D02*
X44096Y-30043D01*
X44096Y-30043D02*
X44096Y-31193D01*
X45196Y-32243D02*
X45196Y-33343D01*
X45196Y-33343D02*
X44096Y-33343D01*
X44096Y-33343D02*
X44096Y-32193D01*
X50826Y-46104D02*
X50826Y-45004D01*
X50826Y-45004D02*
X49726Y-45004D01*
X49726Y-45004D02*
X49726Y-46154D01*
X50826Y-47204D02*
X50826Y-48304D01*
X50826Y-48304D02*
X49726Y-48304D01*
X49726Y-48304D02*
X49726Y-47154D01*
X65786Y-46104D02*
X65786Y-45004D01*
X65786Y-45004D02*
X64686Y-45004D01*
X64686Y-45004D02*
X64686Y-46154D01*
X65786Y-47204D02*
X65786Y-48304D01*
X65786Y-48304D02*
X64686Y-48304D01*
X64686Y-48304D02*
X64686Y-47154D01*
X80747Y-46104D02*
X80747Y-45004D01*
X80747Y-45004D02*
X79647Y-45004D01*
X79647Y-45004D02*
X79647Y-46154D01*
X80747Y-47204D02*
X80747Y-48304D01*
X80747Y-48304D02*
X79647Y-48304D01*
X79647Y-48304D02*
X79647Y-47154D01*
X95707Y-46104D02*
X95707Y-45004D01*
X95707Y-45004D02*
X94607Y-45004D01*
X94607Y-45004D02*
X94607Y-46154D01*
X95707Y-47204D02*
X95707Y-48304D01*
X95707Y-48304D02*
X94607Y-48304D01*
X94607Y-48304D02*
X94607Y-47154D01*
X114408Y-46104D02*
X114408Y-45004D01*
X114408Y-45004D02*
X113308Y-45004D01*
X113308Y-45004D02*
X113308Y-46154D01*
X114408Y-47204D02*
X114408Y-48304D01*
X114408Y-48304D02*
X113308Y-48304D01*
X113308Y-48304D02*
X113308Y-47154D01*
X143739Y-23663D02*
X143739Y-22563D01*
X143739Y-22563D02*
X142639Y-22563D01*
X142639Y-22563D02*
X142639Y-23713D01*
X143739Y-24763D02*
X143739Y-25863D01*
X143739Y-25863D02*
X142639Y-25863D01*
X142639Y-25863D02*
X142639Y-24713D01*
X17144Y-46104D02*
X17144Y-45004D01*
X17144Y-45004D02*
X16044Y-45004D01*
X16044Y-45004D02*
X16044Y-46154D01*
X17144Y-47204D02*
X17144Y-48304D01*
X17144Y-48304D02*
X16044Y-48304D01*
X16044Y-48304D02*
X16044Y-47154D01*
X39605Y-38623D02*
X39605Y-37523D01*
X39605Y-37523D02*
X38505Y-37523D01*
X38505Y-37523D02*
X38505Y-38673D01*
X39605Y-39723D02*
X39605Y-40823D01*
X39605Y-40823D02*
X38505Y-40823D01*
X38505Y-40823D02*
X38505Y-39673D01*
X54566Y-38623D02*
X54566Y-37523D01*
X54566Y-37523D02*
X53466Y-37523D01*
X53466Y-37523D02*
X53466Y-38673D01*
X54566Y-39723D02*
X54566Y-40823D01*
X54566Y-40823D02*
X53466Y-40823D01*
X53466Y-40823D02*
X53466Y-39673D01*
X69526Y-38623D02*
X69526Y-37523D01*
X69526Y-37523D02*
X68426Y-37523D01*
X68426Y-37523D02*
X68426Y-38673D01*
X69526Y-39723D02*
X69526Y-40823D01*
X69526Y-40823D02*
X68426Y-40823D01*
X68426Y-40823D02*
X68426Y-39673D01*
X84487Y-38623D02*
X84487Y-37523D01*
X84487Y-37523D02*
X83387Y-37523D01*
X83387Y-37523D02*
X83387Y-38673D01*
X84487Y-39723D02*
X84487Y-40823D01*
X84487Y-40823D02*
X83387Y-40823D01*
X83387Y-40823D02*
X83387Y-39673D01*
X99448Y-38623D02*
X99448Y-37523D01*
X99448Y-37523D02*
X98348Y-37523D01*
X98348Y-37523D02*
X98348Y-38673D01*
X99448Y-39723D02*
X99448Y-40823D01*
X99448Y-40823D02*
X98348Y-40823D01*
X98348Y-40823D02*
X98348Y-39673D01*
X114408Y-38623D02*
X114408Y-37523D01*
X114408Y-37523D02*
X113308Y-37523D01*
X113308Y-37523D02*
X113308Y-38673D01*
X114408Y-39723D02*
X114408Y-40823D01*
X114408Y-40823D02*
X113308Y-40823D01*
X113308Y-40823D02*
X113308Y-39673D01*
X143739Y-31143D02*
X143739Y-30043D01*
X143739Y-30043D02*
X142639Y-30043D01*
X142639Y-30043D02*
X142639Y-31193D01*
X143739Y-32243D02*
X143739Y-33343D01*
X143739Y-33343D02*
X142639Y-33343D01*
X142639Y-33343D02*
X142639Y-32193D01*
X30235Y-31143D02*
X30235Y-30043D01*
X30235Y-30043D02*
X29135Y-30043D01*
X29135Y-30043D02*
X29135Y-31193D01*
X30235Y-32243D02*
X30235Y-33343D01*
X30235Y-33343D02*
X29135Y-33343D01*
X29135Y-33343D02*
X29135Y-32193D01*
G54D11*
X11018Y-24417D02*
X11000Y-24591D01*
X10950Y-24759D01*
X10867Y-24915D01*
X10756Y-25051D01*
X10621Y-25163D01*
X10466Y-25246D01*
X10298Y-25298D01*
X10124Y-25316D01*
X09950Y-25301D01*
X09781Y-25251D01*
X09626Y-25170D01*
X09489Y-25060D01*
X09376Y-24925D01*
X09291Y-24771D01*
X09238Y-24604D01*
X09219Y-24429D01*
X09233Y-24255D01*
X09282Y-24086D01*
X09362Y-23930D01*
X09471Y-23792D01*
X09605Y-23678D01*
X09758Y-23593D01*
X09925Y-23538D01*
X10100Y-23518D01*
X10274Y-23531D01*
X10443Y-23578D01*
X10600Y-23658D01*
X10738Y-23766D01*
X10853Y-23899D01*
X10940Y-24051D01*
X10995Y-24218D01*
X11017Y-24392D01*
X11018Y-24417D01*
X11018Y-55937D02*
X11000Y-56111D01*
X10950Y-56279D01*
X10867Y-56435D01*
X10756Y-56571D01*
X10621Y-56683D01*
X10466Y-56766D01*
X10298Y-56818D01*
X10124Y-56836D01*
X09950Y-56821D01*
X09781Y-56771D01*
X09626Y-56690D01*
X09489Y-56580D01*
X09376Y-56445D01*
X09291Y-56291D01*
X09238Y-56124D01*
X09219Y-55949D01*
X09233Y-55775D01*
X09282Y-55606D01*
X09362Y-55450D01*
X09471Y-55312D01*
X09605Y-55198D01*
X09758Y-55113D01*
X09925Y-55058D01*
X10100Y-55038D01*
X10274Y-55051D01*
X10443Y-55098D01*
X10600Y-55178D01*
X10738Y-55286D01*
X10853Y-55419D01*
X10940Y-55571D01*
X10995Y-55738D01*
X11017Y-55912D01*
X11018Y-55937D01*
X155132Y-55937D02*
X155114Y-56111D01*
X155064Y-56279D01*
X154981Y-56435D01*
X154870Y-56571D01*
X154735Y-56683D01*
X154580Y-56766D01*
X154412Y-56818D01*
X154238Y-56836D01*
X154064Y-56821D01*
X153895Y-56771D01*
X153740Y-56690D01*
X153603Y-56580D01*
X153490Y-56445D01*
X153405Y-56291D01*
X153352Y-56124D01*
X153333Y-55949D01*
X153347Y-55775D01*
X153396Y-55606D01*
X153476Y-55450D01*
X153585Y-55312D01*
X153719Y-55198D01*
X153872Y-55113D01*
X154039Y-55058D01*
X154214Y-55038D01*
X154388Y-55051D01*
X154557Y-55098D01*
X154714Y-55178D01*
X154852Y-55286D01*
X154967Y-55419D01*
X155054Y-55571D01*
X155109Y-55738D01*
X155131Y-55912D01*
X155132Y-55937D01*
X155132Y-24417D02*
X155114Y-24591D01*
X155064Y-24759D01*
X154981Y-24915D01*
X154870Y-25051D01*
X154735Y-25163D01*
X154580Y-25246D01*
X154412Y-25298D01*
X154238Y-25316D01*
X154064Y-25301D01*
X153895Y-25251D01*
X153740Y-25170D01*
X153603Y-25060D01*
X153490Y-24925D01*
X153405Y-24771D01*
X153352Y-24604D01*
X153333Y-24429D01*
X153347Y-24255D01*
X153396Y-24086D01*
X153476Y-23930D01*
X153585Y-23792D01*
X153719Y-23678D01*
X153872Y-23593D01*
X154039Y-23538D01*
X154214Y-23518D01*
X154388Y-23531D01*
X154557Y-23578D01*
X154714Y-23658D01*
X154852Y-23766D01*
X154967Y-23899D01*
X155054Y-24051D01*
X155109Y-24218D01*
X155131Y-24392D01*
X155132Y-24417D01*
G54D10*
X124844Y-53503D02*
X124844Y-54603D01*
X124844Y-54603D02*
X125944Y-54603D01*
X125944Y-54603D02*
X125944Y-53453D01*
X124844Y-52403D02*
X124844Y-51303D01*
X124844Y-51303D02*
X125944Y-51303D01*
X125944Y-51303D02*
X125944Y-52453D01*
X142167Y-53503D02*
X142167Y-54603D01*
X142167Y-54603D02*
X143267Y-54603D01*
X143267Y-54603D02*
X143267Y-53453D01*
X142167Y-52403D02*
X142167Y-51303D01*
X142167Y-51303D02*
X143267Y-51303D01*
X143267Y-51303D02*
X143267Y-52453D01*
X143938Y-53503D02*
X143938Y-54603D01*
X143938Y-54603D02*
X145038Y-54603D01*
X145038Y-54603D02*
X145038Y-53453D01*
X143938Y-52403D02*
X143938Y-51303D01*
X143938Y-51303D02*
X145038Y-51303D01*
X145038Y-51303D02*
X145038Y-52453D01*
X123072Y-53503D02*
X123072Y-54603D01*
X123072Y-54603D02*
X124172Y-54603D01*
X124172Y-54603D02*
X124172Y-53453D01*
X123072Y-52403D02*
X123072Y-51303D01*
X123072Y-51303D02*
X124172Y-51303D01*
X124172Y-51303D02*
X124172Y-52453D01*
X121300Y-53503D02*
X121300Y-54603D01*
X121300Y-54603D02*
X122400Y-54603D01*
X122400Y-54603D02*
X122400Y-53453D01*
X121300Y-52403D02*
X121300Y-51303D01*
X121300Y-51303D02*
X122400Y-51303D01*
X122400Y-51303D02*
X122400Y-52453D01*
X119529Y-53503D02*
X119529Y-54603D01*
X119529Y-54603D02*
X120629Y-54603D01*
X120629Y-54603D02*
X120629Y-53453D01*
X119529Y-52403D02*
X119529Y-51303D01*
X119529Y-51303D02*
X120629Y-51303D01*
X120629Y-51303D02*
X120629Y-52453D01*
X145710Y-53503D02*
X145710Y-54603D01*
X145710Y-54603D02*
X146810Y-54603D01*
X146810Y-54603D02*
X146810Y-53453D01*
X145710Y-52403D02*
X145710Y-51303D01*
X145710Y-51303D02*
X146810Y-51303D01*
X146810Y-51303D02*
X146810Y-52453D01*
X147481Y-53503D02*
X147481Y-54603D01*
X147481Y-54603D02*
X148581Y-54603D01*
X148581Y-54603D02*
X148581Y-53453D01*
X147481Y-52403D02*
X147481Y-51303D01*
X147481Y-51303D02*
X148581Y-51303D01*
X148581Y-51303D02*
X148581Y-52453D01*
X149253Y-53503D02*
X149253Y-54603D01*
X149253Y-54603D02*
X150353Y-54603D01*
X150353Y-54603D02*
X150353Y-53453D01*
X149253Y-52403D02*
X149253Y-51303D01*
X149253Y-51303D02*
X150353Y-51303D01*
X150353Y-51303D02*
X150353Y-52453D01*
X19205Y-22217D02*
X25205Y-22217D01*
X25205Y-22217D02*
X25205Y-28217D01*
X25205Y-28217D02*
X19205Y-28217D01*
X19205Y-28217D02*
X19205Y-22217D01*
X34165Y-22217D02*
X40165Y-22217D01*
X40165Y-22217D02*
X40165Y-28217D01*
X40165Y-28217D02*
X34165Y-28217D01*
X34165Y-28217D02*
X34165Y-22217D01*
X49126Y-22217D02*
X55126Y-22217D01*
X55126Y-22217D02*
X55126Y-28217D01*
X55126Y-28217D02*
X49126Y-28217D01*
X49126Y-28217D02*
X49126Y-22217D01*
X64087Y-22217D02*
X70087Y-22217D01*
X70087Y-22217D02*
X70087Y-28217D01*
X70087Y-28217D02*
X64087Y-28217D01*
X64087Y-28217D02*
X64087Y-22217D01*
X79047Y-22217D02*
X85047Y-22217D01*
X85047Y-22217D02*
X85047Y-28217D01*
X85047Y-28217D02*
X79047Y-28217D01*
X79047Y-28217D02*
X79047Y-22217D01*
X94008Y-22217D02*
X100008Y-22217D01*
X100008Y-22217D02*
X100008Y-28217D01*
X100008Y-28217D02*
X94008Y-28217D01*
X94008Y-28217D02*
X94008Y-22217D01*
X108969Y-22217D02*
X114969Y-22217D01*
X114969Y-22217D02*
X114969Y-28217D01*
X114969Y-28217D02*
X108969Y-28217D01*
X108969Y-28217D02*
X108969Y-22217D01*
X123929Y-22217D02*
X129929Y-22217D01*
X129929Y-22217D02*
X129929Y-28217D01*
X129929Y-28217D02*
X123929Y-28217D01*
X123929Y-28217D02*
X123929Y-22217D01*
X11724Y-22217D02*
X17724Y-22217D01*
X17724Y-22217D02*
X17724Y-28217D01*
X17724Y-28217D02*
X11724Y-28217D01*
X11724Y-28217D02*
X11724Y-22217D01*
X30425Y-29697D02*
X36425Y-29697D01*
X36425Y-29697D02*
X36425Y-35697D01*
X36425Y-35697D02*
X30425Y-35697D01*
X30425Y-35697D02*
X30425Y-29697D01*
X45386Y-29697D02*
X51386Y-29697D01*
X51386Y-29697D02*
X51386Y-35697D01*
X51386Y-35697D02*
X45386Y-35697D01*
X45386Y-35697D02*
X45386Y-29697D01*
X60346Y-29697D02*
X66346Y-29697D01*
X66346Y-29697D02*
X66346Y-35697D01*
X66346Y-35697D02*
X60346Y-35697D01*
X60346Y-35697D02*
X60346Y-29697D01*
X75307Y-29697D02*
X81307Y-29697D01*
X81307Y-29697D02*
X81307Y-35697D01*
X81307Y-35697D02*
X75307Y-35697D01*
X75307Y-35697D02*
X75307Y-29697D01*
X90268Y-29697D02*
X96268Y-29697D01*
X96268Y-29697D02*
X96268Y-35697D01*
X96268Y-35697D02*
X90268Y-35697D01*
X90268Y-35697D02*
X90268Y-29697D01*
X105228Y-29697D02*
X111228Y-29697D01*
X111228Y-29697D02*
X111228Y-35697D01*
X111228Y-35697D02*
X105228Y-35697D01*
X105228Y-35697D02*
X105228Y-29697D01*
X118339Y-37177D02*
X124339Y-37177D01*
X124339Y-37177D02*
X124339Y-43177D01*
X124339Y-43177D02*
X118339Y-43177D01*
X118339Y-43177D02*
X118339Y-37177D01*
X15465Y-29697D02*
X21465Y-29697D01*
X21465Y-29697D02*
X21465Y-35697D01*
X21465Y-35697D02*
X15465Y-35697D01*
X15465Y-35697D02*
X15465Y-29697D01*
X24835Y-37177D02*
X30835Y-37177D01*
X30835Y-37177D02*
X30835Y-43177D01*
X30835Y-43177D02*
X24835Y-43177D01*
X24835Y-43177D02*
X24835Y-37177D01*
X39795Y-37177D02*
X45795Y-37177D01*
X45795Y-37177D02*
X45795Y-43177D01*
X45795Y-43177D02*
X39795Y-43177D01*
X39795Y-43177D02*
X39795Y-37177D01*
X54756Y-37177D02*
X60756Y-37177D01*
X60756Y-37177D02*
X60756Y-43177D01*
X60756Y-43177D02*
X54756Y-43177D01*
X54756Y-43177D02*
X54756Y-37177D01*
X69717Y-37177D02*
X75717Y-37177D01*
X75717Y-37177D02*
X75717Y-43177D01*
X75717Y-43177D02*
X69717Y-43177D01*
X69717Y-43177D02*
X69717Y-37177D01*
X84677Y-37177D02*
X90677Y-37177D01*
X90677Y-37177D02*
X90677Y-43177D01*
X90677Y-43177D02*
X84677Y-43177D01*
X84677Y-43177D02*
X84677Y-37177D01*
X99638Y-37177D02*
X105638Y-37177D01*
X105638Y-37177D02*
X105638Y-43177D01*
X105638Y-43177D02*
X99638Y-43177D01*
X99638Y-43177D02*
X99638Y-37177D01*
X122079Y-44657D02*
X128079Y-44657D01*
X128079Y-44657D02*
X128079Y-50657D01*
X128079Y-50657D02*
X122079Y-50657D01*
X122079Y-50657D02*
X122079Y-44657D01*
X09874Y-37177D02*
X15874Y-37177D01*
X15874Y-37177D02*
X15874Y-43177D01*
X15874Y-43177D02*
X09874Y-43177D01*
X09874Y-43177D02*
X09874Y-37177D01*
X21094Y-44657D02*
X27094Y-44657D01*
X27094Y-44657D02*
X27094Y-50657D01*
X27094Y-50657D02*
X21094Y-50657D01*
X21094Y-50657D02*
X21094Y-44657D01*
X36055Y-44657D02*
X42055Y-44657D01*
X42055Y-44657D02*
X42055Y-50657D01*
X42055Y-50657D02*
X36055Y-50657D01*
X36055Y-50657D02*
X36055Y-44657D01*
X51016Y-44657D02*
X57016Y-44657D01*
X57016Y-44657D02*
X57016Y-50657D01*
X57016Y-50657D02*
X51016Y-50657D01*
X51016Y-50657D02*
X51016Y-44657D01*
X65976Y-44657D02*
X71976Y-44657D01*
X71976Y-44657D02*
X71976Y-50657D01*
X71976Y-50657D02*
X65976Y-50657D01*
X65976Y-50657D02*
X65976Y-44657D01*
X80937Y-44657D02*
X86937Y-44657D01*
X86937Y-44657D02*
X86937Y-50657D01*
X86937Y-50657D02*
X80937Y-50657D01*
X80937Y-50657D02*
X80937Y-44657D01*
X95897Y-44657D02*
X101897Y-44657D01*
X101897Y-44657D02*
X101897Y-50657D01*
X101897Y-50657D02*
X95897Y-50657D01*
X95897Y-50657D02*
X95897Y-44657D01*
X114598Y-44657D02*
X120598Y-44657D01*
X120598Y-44657D02*
X120598Y-50657D01*
X120598Y-50657D02*
X114598Y-50657D01*
X114598Y-50657D02*
X114598Y-44657D01*
X60425Y-52138D02*
X66425Y-52138D01*
X66425Y-52138D02*
X66425Y-58138D01*
X66425Y-58138D02*
X60425Y-58138D01*
X60425Y-58138D02*
X60425Y-52138D01*
X28575Y-44657D02*
X34575Y-44657D01*
X34575Y-44657D02*
X34575Y-50657D01*
X34575Y-50657D02*
X28575Y-50657D01*
X28575Y-50657D02*
X28575Y-44657D01*
X43535Y-44657D02*
X49535Y-44657D01*
X49535Y-44657D02*
X49535Y-50657D01*
X49535Y-50657D02*
X43535Y-50657D01*
X43535Y-50657D02*
X43535Y-44657D01*
X58496Y-44657D02*
X64496Y-44657D01*
X64496Y-44657D02*
X64496Y-50657D01*
X64496Y-50657D02*
X58496Y-50657D01*
X58496Y-50657D02*
X58496Y-44657D01*
X73457Y-44657D02*
X79457Y-44657D01*
X79457Y-44657D02*
X79457Y-50657D01*
X79457Y-50657D02*
X73457Y-50657D01*
X73457Y-50657D02*
X73457Y-44657D01*
X88417Y-44657D02*
X94417Y-44657D01*
X94417Y-44657D02*
X94417Y-50657D01*
X94417Y-50657D02*
X88417Y-50657D01*
X88417Y-50657D02*
X88417Y-44657D01*
X107118Y-44657D02*
X113118Y-44657D01*
X113118Y-44657D02*
X113118Y-50657D01*
X113118Y-50657D02*
X107118Y-50657D01*
X107118Y-50657D02*
X107118Y-44657D01*
X143929Y-22217D02*
X149929Y-22217D01*
X149929Y-22217D02*
X149929Y-28217D01*
X149929Y-28217D02*
X143929Y-28217D01*
X143929Y-28217D02*
X143929Y-22217D01*
X09874Y-44657D02*
X15874Y-44657D01*
X15874Y-44657D02*
X15874Y-50657D01*
X15874Y-50657D02*
X09874Y-50657D01*
X09874Y-50657D02*
X09874Y-44657D01*
X32315Y-37177D02*
X38315Y-37177D01*
X38315Y-37177D02*
X38315Y-43177D01*
X38315Y-43177D02*
X32315Y-43177D01*
X32315Y-43177D02*
X32315Y-37177D01*
X47276Y-37177D02*
X53276Y-37177D01*
X53276Y-37177D02*
X53276Y-43177D01*
X53276Y-43177D02*
X47276Y-43177D01*
X47276Y-43177D02*
X47276Y-37177D01*
X62236Y-37177D02*
X68236Y-37177D01*
X68236Y-37177D02*
X68236Y-43177D01*
X68236Y-43177D02*
X62236Y-43177D01*
X62236Y-43177D02*
X62236Y-37177D01*
X77197Y-37177D02*
X83197Y-37177D01*
X83197Y-37177D02*
X83197Y-43177D01*
X83197Y-43177D02*
X77197Y-43177D01*
X77197Y-43177D02*
X77197Y-37177D01*
X92157Y-37177D02*
X98157Y-37177D01*
X98157Y-37177D02*
X98157Y-43177D01*
X98157Y-43177D02*
X92157Y-43177D01*
X92157Y-43177D02*
X92157Y-37177D01*
X107118Y-37177D02*
X113118Y-37177D01*
X113118Y-37177D02*
X113118Y-43177D01*
X113118Y-43177D02*
X107118Y-43177D01*
X107118Y-43177D02*
X107118Y-37177D01*
X143929Y-29697D02*
X149929Y-29697D01*
X149929Y-29697D02*
X149929Y-35697D01*
X149929Y-35697D02*
X143929Y-35697D01*
X143929Y-35697D02*
X143929Y-29697D01*
X22945Y-29697D02*
X28945Y-29697D01*
X28945Y-29697D02*
X28945Y-35697D01*
X28945Y-35697D02*
X22945Y-35697D01*
X22945Y-35697D02*
X22945Y-29697D01*
X37906Y-29697D02*
X43906Y-29697D01*
X43906Y-29697D02*
X43906Y-35697D01*
X43906Y-35697D02*
X37906Y-35697D01*
X37906Y-35697D02*
X37906Y-29697D01*
X52866Y-29697D02*
X58866Y-29697D01*
X58866Y-29697D02*
X58866Y-35697D01*
X58866Y-35697D02*
X52866Y-35697D01*
X52866Y-35697D02*
X52866Y-29697D01*
X67827Y-29697D02*
X73827Y-29697D01*
X73827Y-29697D02*
X73827Y-35697D01*
X73827Y-35697D02*
X67827Y-35697D01*
X67827Y-35697D02*
X67827Y-29697D01*
X82787Y-29697D02*
X88787Y-29697D01*
X88787Y-29697D02*
X88787Y-35697D01*
X88787Y-35697D02*
X82787Y-35697D01*
X82787Y-35697D02*
X82787Y-29697D01*
X97748Y-29697D02*
X103748Y-29697D01*
X103748Y-29697D02*
X103748Y-35697D01*
X103748Y-35697D02*
X97748Y-35697D01*
X97748Y-35697D02*
X97748Y-29697D01*
X112709Y-29697D02*
X118709Y-29697D01*
X118709Y-29697D02*
X118709Y-35697D01*
X118709Y-35697D02*
X112709Y-35697D01*
X112709Y-35697D02*
X112709Y-29697D01*
X143929Y-37177D02*
X149929Y-37177D01*
X149929Y-37177D02*
X149929Y-43177D01*
X149929Y-43177D02*
X143929Y-43177D01*
X143929Y-43177D02*
X143929Y-37177D01*
X26685Y-22217D02*
X32685Y-22217D01*
X32685Y-22217D02*
X32685Y-28217D01*
X32685Y-28217D02*
X26685Y-28217D01*
X26685Y-28217D02*
X26685Y-22217D01*
X41646Y-22217D02*
X47646Y-22217D01*
X47646Y-22217D02*
X47646Y-28217D01*
X47646Y-28217D02*
X41646Y-28217D01*
X41646Y-28217D02*
X41646Y-22217D01*
X56606Y-22217D02*
X62606Y-22217D01*
X62606Y-22217D02*
X62606Y-28217D01*
X62606Y-28217D02*
X56606Y-28217D01*
X56606Y-28217D02*
X56606Y-22217D01*
X71567Y-22217D02*
X77567Y-22217D01*
X77567Y-22217D02*
X77567Y-28217D01*
X77567Y-28217D02*
X71567Y-28217D01*
X71567Y-28217D02*
X71567Y-22217D01*
X86528Y-22217D02*
X92528Y-22217D01*
X92528Y-22217D02*
X92528Y-28217D01*
X92528Y-28217D02*
X86528Y-28217D01*
X86528Y-28217D02*
X86528Y-22217D01*
X101488Y-22217D02*
X107488Y-22217D01*
X107488Y-22217D02*
X107488Y-28217D01*
X107488Y-28217D02*
X101488Y-28217D01*
X101488Y-28217D02*
X101488Y-22217D01*
X116449Y-22217D02*
X122449Y-22217D01*
X122449Y-22217D02*
X122449Y-28217D01*
X122449Y-28217D02*
X116449Y-28217D01*
X116449Y-28217D02*
X116449Y-22217D01*
X143929Y-44657D02*
X149929Y-44657D01*
X149929Y-44657D02*
X149929Y-50657D01*
X149929Y-50657D02*
X143929Y-50657D01*
X143929Y-50657D02*
X143929Y-44657D01*
X17354Y-37177D02*
X23354Y-37177D01*
X23354Y-37177D02*
X23354Y-43177D01*
X23354Y-43177D02*
X17354Y-43177D01*
X17354Y-43177D02*
X17354Y-37177D01*
X120189Y-29697D02*
X126189Y-29697D01*
X126189Y-29697D02*
X126189Y-35697D01*
X126189Y-35697D02*
X120189Y-35697D01*
X120189Y-35697D02*
X120189Y-29697D01*
G54D12*
X146675Y-44090D02*
X146389Y-44090D01*
X146532Y-44090D02*
X146532Y-43540D01*
X146484Y-43618D01*
X146437Y-43671D01*
X146389Y-43697D01*
X146984Y-43540D02*
X147032Y-43540D01*
X147080Y-43566D01*
X147103Y-43592D01*
X147127Y-43644D01*
X147151Y-43749D01*
X147151Y-43880D01*
X147127Y-43985D01*
X147103Y-44037D01*
X147080Y-44063D01*
X147032Y-44090D01*
X146984Y-44090D01*
X146937Y-44063D01*
X146913Y-44037D01*
X146889Y-43985D01*
X146865Y-43880D01*
X146865Y-43749D01*
X146889Y-43644D01*
X146913Y-43592D01*
X146937Y-43566D01*
X146984Y-43540D01*
X147460Y-43540D02*
X147508Y-43540D01*
X147556Y-43566D01*
X147579Y-43592D01*
X147603Y-43644D01*
X147627Y-43749D01*
X147627Y-43880D01*
X147603Y-43985D01*
X147579Y-44037D01*
X147556Y-44063D01*
X147508Y-44090D01*
X147460Y-44090D01*
X147413Y-44063D01*
X147389Y-44037D01*
X147365Y-43985D01*
X147341Y-43880D01*
X147341Y-43749D01*
X147365Y-43644D01*
X147389Y-43592D01*
X147413Y-43566D01*
X147460Y-43540D01*
X26228Y-24396D02*
X25528Y-24396D01*
X25528Y-24230D01*
X25562Y-24130D01*
X25628Y-24063D01*
X25695Y-24030D01*
X25828Y-23996D01*
X25928Y-23996D01*
X26062Y-24030D01*
X26128Y-24063D01*
X26195Y-24130D01*
X26228Y-24230D01*
X26228Y-24396D01*
X28118Y-46837D02*
X27418Y-46837D01*
X27418Y-46671D01*
X27452Y-46571D01*
X27518Y-46504D01*
X27585Y-46471D01*
X27718Y-46437D01*
X27818Y-46437D01*
X27952Y-46471D01*
X28018Y-46504D01*
X28085Y-46571D01*
X28118Y-46671D01*
X28118Y-46837D01*
X31858Y-39356D02*
X31158Y-39356D01*
X31158Y-39190D01*
X31192Y-39090D01*
X31258Y-39023D01*
X31325Y-38990D01*
X31458Y-38956D01*
X31558Y-38956D01*
X31692Y-38990D01*
X31758Y-39023D01*
X31825Y-39090D01*
X31858Y-39190D01*
X31858Y-39356D01*
X46818Y-39356D02*
X46118Y-39356D01*
X46118Y-39190D01*
X46152Y-39090D01*
X46218Y-39023D01*
X46285Y-38990D01*
X46418Y-38956D01*
X46518Y-38956D01*
X46652Y-38990D01*
X46718Y-39023D01*
X46785Y-39090D01*
X46818Y-39190D01*
X46818Y-39356D01*
X61779Y-39356D02*
X61079Y-39356D01*
X61079Y-39190D01*
X61113Y-39090D01*
X61179Y-39023D01*
X61246Y-38990D01*
X61379Y-38956D01*
X61479Y-38956D01*
X61613Y-38990D01*
X61679Y-39023D01*
X61746Y-39090D01*
X61779Y-39190D01*
X61779Y-39356D01*
X76740Y-39356D02*
X76040Y-39356D01*
X76040Y-39190D01*
X76074Y-39090D01*
X76140Y-39023D01*
X76207Y-38990D01*
X76340Y-38956D01*
X76440Y-38956D01*
X76574Y-38990D01*
X76640Y-39023D01*
X76707Y-39090D01*
X76740Y-39190D01*
X76740Y-39356D01*
X91700Y-39356D02*
X91000Y-39356D01*
X91000Y-39190D01*
X91034Y-39090D01*
X91100Y-39023D01*
X91167Y-38990D01*
X91300Y-38956D01*
X91400Y-38956D01*
X91534Y-38990D01*
X91600Y-39023D01*
X91667Y-39090D01*
X91700Y-39190D01*
X91700Y-39356D01*
X106661Y-39356D02*
X105961Y-39356D01*
X105961Y-39190D01*
X105995Y-39090D01*
X106061Y-39023D01*
X106128Y-38990D01*
X106261Y-38956D01*
X106361Y-38956D01*
X106495Y-38990D01*
X106561Y-39023D01*
X106628Y-39090D01*
X106661Y-39190D01*
X106661Y-39356D01*
X124896Y-44200D02*
X124896Y-43500D01*
X125062Y-43500D01*
X125162Y-43534D01*
X125229Y-43600D01*
X125262Y-43667D01*
X125296Y-43800D01*
X125296Y-43900D01*
X125262Y-44034D01*
X125229Y-44100D01*
X125162Y-44167D01*
X125062Y-44200D01*
X124896Y-44200D01*
X16897Y-39356D02*
X16197Y-39356D01*
X16197Y-39190D01*
X16231Y-39090D01*
X16297Y-39023D01*
X16364Y-38990D01*
X16497Y-38956D01*
X16597Y-38956D01*
X16731Y-38990D01*
X16797Y-39023D01*
X16864Y-39090D01*
X16897Y-39190D01*
X16897Y-39356D01*
X22488Y-31876D02*
X21788Y-31876D01*
X21788Y-31710D01*
X21822Y-31610D01*
X21888Y-31543D01*
X21955Y-31510D01*
X22088Y-31476D01*
X22188Y-31476D01*
X22322Y-31510D01*
X22388Y-31543D01*
X22455Y-31610D01*
X22488Y-31710D01*
X22488Y-31876D01*
X43078Y-46837D02*
X42378Y-46837D01*
X42378Y-46671D01*
X42412Y-46571D01*
X42478Y-46504D01*
X42545Y-46471D01*
X42678Y-46437D01*
X42778Y-46437D01*
X42912Y-46471D01*
X42978Y-46504D01*
X43045Y-46571D01*
X43078Y-46671D01*
X43078Y-46837D01*
X58039Y-46837D02*
X57339Y-46837D01*
X57339Y-46671D01*
X57373Y-46571D01*
X57439Y-46504D01*
X57506Y-46471D01*
X57639Y-46437D01*
X57739Y-46437D01*
X57873Y-46471D01*
X57939Y-46504D01*
X58006Y-46571D01*
X58039Y-46671D01*
X58039Y-46837D01*
X73000Y-46837D02*
X72300Y-46837D01*
X72300Y-46671D01*
X72334Y-46571D01*
X72400Y-46504D01*
X72467Y-46471D01*
X72600Y-46437D01*
X72700Y-46437D01*
X72834Y-46471D01*
X72900Y-46504D01*
X72967Y-46571D01*
X73000Y-46671D01*
X73000Y-46837D01*
X87960Y-46837D02*
X87260Y-46837D01*
X87260Y-46671D01*
X87294Y-46571D01*
X87360Y-46504D01*
X87427Y-46471D01*
X87560Y-46437D01*
X87660Y-46437D01*
X87794Y-46471D01*
X87860Y-46504D01*
X87927Y-46571D01*
X87960Y-46671D01*
X87960Y-46837D01*
X102921Y-46837D02*
X102221Y-46837D01*
X102221Y-46671D01*
X102255Y-46571D01*
X102321Y-46504D01*
X102388Y-46471D01*
X102521Y-46437D01*
X102621Y-46437D01*
X102755Y-46471D01*
X102821Y-46504D01*
X102888Y-46571D01*
X102921Y-46671D01*
X102921Y-46837D01*
X121622Y-46837D02*
X120922Y-46837D01*
X120922Y-46671D01*
X120956Y-46571D01*
X121022Y-46504D01*
X121089Y-46471D01*
X121222Y-46437D01*
X121322Y-46437D01*
X121456Y-46471D01*
X121522Y-46504D01*
X121589Y-46571D01*
X121622Y-46671D01*
X121622Y-46837D01*
X67448Y-54317D02*
X66748Y-54317D01*
X66748Y-54151D01*
X66782Y-54051D01*
X66848Y-53984D01*
X66915Y-53951D01*
X67048Y-53917D01*
X67148Y-53917D01*
X67282Y-53951D01*
X67348Y-53984D01*
X67415Y-54051D01*
X67448Y-54151D01*
X67448Y-54317D01*
X118590Y-53136D02*
X117890Y-53136D01*
X117890Y-52970D01*
X117924Y-52870D01*
X117990Y-52803D01*
X118057Y-52770D01*
X118190Y-52736D01*
X118290Y-52736D01*
X118424Y-52770D01*
X118490Y-52803D01*
X118557Y-52870D01*
X118590Y-52970D01*
X118590Y-53136D01*
X123144Y-36720D02*
X123144Y-36020D01*
X123310Y-36020D01*
X123410Y-36054D01*
X123477Y-36120D01*
X123510Y-36187D01*
X123544Y-36320D01*
X123544Y-36420D01*
X123510Y-36554D01*
X123477Y-36620D01*
X123410Y-36687D01*
X123310Y-36720D01*
X123144Y-36720D01*
X112252Y-31876D02*
X111552Y-31876D01*
X111552Y-31710D01*
X111586Y-31610D01*
X111652Y-31543D01*
X111719Y-31510D01*
X111852Y-31476D01*
X111952Y-31476D01*
X112086Y-31510D01*
X112152Y-31543D01*
X112219Y-31610D01*
X112252Y-31710D01*
X112252Y-31876D01*
X97291Y-31876D02*
X96591Y-31876D01*
X96591Y-31710D01*
X96625Y-31610D01*
X96691Y-31543D01*
X96758Y-31510D01*
X96891Y-31476D01*
X96991Y-31476D01*
X97125Y-31510D01*
X97191Y-31543D01*
X97258Y-31610D01*
X97291Y-31710D01*
X97291Y-31876D01*
X82330Y-31876D02*
X81630Y-31876D01*
X81630Y-31710D01*
X81664Y-31610D01*
X81730Y-31543D01*
X81797Y-31510D01*
X81930Y-31476D01*
X82030Y-31476D01*
X82164Y-31510D01*
X82230Y-31543D01*
X82297Y-31610D01*
X82330Y-31710D01*
X82330Y-31876D01*
X67370Y-31876D02*
X66670Y-31876D01*
X66670Y-31710D01*
X66704Y-31610D01*
X66770Y-31543D01*
X66837Y-31510D01*
X66970Y-31476D01*
X67070Y-31476D01*
X67204Y-31510D01*
X67270Y-31543D01*
X67337Y-31610D01*
X67370Y-31710D01*
X67370Y-31876D01*
X52409Y-31876D02*
X51709Y-31876D01*
X51709Y-31710D01*
X51743Y-31610D01*
X51809Y-31543D01*
X51876Y-31510D01*
X52009Y-31476D01*
X52109Y-31476D01*
X52243Y-31510D01*
X52309Y-31543D01*
X52376Y-31610D01*
X52409Y-31710D01*
X52409Y-31876D01*
X37448Y-31876D02*
X36748Y-31876D01*
X36748Y-31710D01*
X36782Y-31610D01*
X36848Y-31543D01*
X36915Y-31510D01*
X37048Y-31476D01*
X37148Y-31476D01*
X37282Y-31510D01*
X37348Y-31543D01*
X37415Y-31610D01*
X37448Y-31710D01*
X37448Y-31876D01*
X18748Y-24396D02*
X18048Y-24396D01*
X18048Y-24230D01*
X18082Y-24130D01*
X18148Y-24063D01*
X18215Y-24030D01*
X18348Y-23996D01*
X18448Y-23996D01*
X18582Y-24030D01*
X18648Y-24063D01*
X18715Y-24130D01*
X18748Y-24230D01*
X18748Y-24396D01*
X126786Y-29220D02*
X126786Y-28520D01*
X126952Y-28520D01*
X127052Y-28554D01*
X127119Y-28620D01*
X127152Y-28687D01*
X127186Y-28820D01*
X127186Y-28920D01*
X127152Y-29054D01*
X127119Y-29120D01*
X127052Y-29187D01*
X126952Y-29220D01*
X126786Y-29220D01*
X115992Y-24396D02*
X115292Y-24396D01*
X115292Y-24230D01*
X115326Y-24130D01*
X115392Y-24063D01*
X115459Y-24030D01*
X115592Y-23996D01*
X115692Y-23996D01*
X115826Y-24030D01*
X115892Y-24063D01*
X115959Y-24130D01*
X115992Y-24230D01*
X115992Y-24396D01*
X101031Y-24396D02*
X100331Y-24396D01*
X100331Y-24230D01*
X100365Y-24130D01*
X100431Y-24063D01*
X100498Y-24030D01*
X100631Y-23996D01*
X100731Y-23996D01*
X100865Y-24030D01*
X100931Y-24063D01*
X100998Y-24130D01*
X101031Y-24230D01*
X101031Y-24396D01*
X86070Y-24396D02*
X85370Y-24396D01*
X85370Y-24230D01*
X85404Y-24130D01*
X85470Y-24063D01*
X85537Y-24030D01*
X85670Y-23996D01*
X85770Y-23996D01*
X85904Y-24030D01*
X85970Y-24063D01*
X86037Y-24130D01*
X86070Y-24230D01*
X86070Y-24396D01*
X71110Y-24396D02*
X70410Y-24396D01*
X70410Y-24230D01*
X70444Y-24130D01*
X70510Y-24063D01*
X70577Y-24030D01*
X70710Y-23996D01*
X70810Y-23996D01*
X70944Y-24030D01*
X71010Y-24063D01*
X71077Y-24130D01*
X71110Y-24230D01*
X71110Y-24396D01*
X56149Y-24396D02*
X55449Y-24396D01*
X55449Y-24230D01*
X55483Y-24130D01*
X55549Y-24063D01*
X55616Y-24030D01*
X55749Y-23996D01*
X55849Y-23996D01*
X55983Y-24030D01*
X56049Y-24063D01*
X56116Y-24130D01*
X56149Y-24230D01*
X56149Y-24396D01*
X41189Y-24396D02*
X40489Y-24396D01*
X40489Y-24230D01*
X40523Y-24130D01*
X40589Y-24063D01*
X40656Y-24030D01*
X40789Y-23996D01*
X40889Y-23996D01*
X41023Y-24030D01*
X41089Y-24063D01*
X41156Y-24130D01*
X41189Y-24230D01*
X41189Y-24396D01*
X35598Y-46837D02*
X34898Y-46837D01*
X34898Y-46671D01*
X34932Y-46571D01*
X34998Y-46504D01*
X35065Y-46471D01*
X35198Y-46437D01*
X35298Y-46437D01*
X35432Y-46471D01*
X35498Y-46504D01*
X35565Y-46571D01*
X35598Y-46671D01*
X35598Y-46837D01*
X24377Y-39356D02*
X23677Y-39356D01*
X23677Y-39190D01*
X23711Y-39090D01*
X23777Y-39023D01*
X23844Y-38990D01*
X23977Y-38956D01*
X24077Y-38956D01*
X24211Y-38990D01*
X24277Y-39023D01*
X24344Y-39090D01*
X24377Y-39190D01*
X24377Y-39356D01*
X143472Y-46837D02*
X142772Y-46837D01*
X142772Y-46671D01*
X142806Y-46571D01*
X142872Y-46504D01*
X142939Y-46471D01*
X143072Y-46437D01*
X143172Y-46437D01*
X143306Y-46471D01*
X143372Y-46504D01*
X143439Y-46571D01*
X143472Y-46671D01*
X143472Y-46837D01*
X123472Y-24396D02*
X122772Y-24396D01*
X122772Y-24230D01*
X122806Y-24130D01*
X122872Y-24063D01*
X122939Y-24030D01*
X123072Y-23996D01*
X123172Y-23996D01*
X123306Y-24030D01*
X123372Y-24063D01*
X123439Y-24130D01*
X123472Y-24230D01*
X123472Y-24396D01*
X108511Y-24396D02*
X107811Y-24396D01*
X107811Y-24230D01*
X107845Y-24130D01*
X107911Y-24063D01*
X107978Y-24030D01*
X108111Y-23996D01*
X108211Y-23996D01*
X108345Y-24030D01*
X108411Y-24063D01*
X108478Y-24130D01*
X108511Y-24230D01*
X108511Y-24396D01*
X93551Y-24396D02*
X92851Y-24396D01*
X92851Y-24230D01*
X92885Y-24130D01*
X92951Y-24063D01*
X93018Y-24030D01*
X93151Y-23996D01*
X93251Y-23996D01*
X93385Y-24030D01*
X93451Y-24063D01*
X93518Y-24130D01*
X93551Y-24230D01*
X93551Y-24396D01*
X78590Y-24396D02*
X77890Y-24396D01*
X77890Y-24230D01*
X77924Y-24130D01*
X77990Y-24063D01*
X78057Y-24030D01*
X78190Y-23996D01*
X78290Y-23996D01*
X78424Y-24030D01*
X78490Y-24063D01*
X78557Y-24130D01*
X78590Y-24230D01*
X78590Y-24396D01*
X63629Y-24396D02*
X62929Y-24396D01*
X62929Y-24230D01*
X62963Y-24130D01*
X63029Y-24063D01*
X63096Y-24030D01*
X63229Y-23996D01*
X63329Y-23996D01*
X63463Y-24030D01*
X63529Y-24063D01*
X63596Y-24130D01*
X63629Y-24230D01*
X63629Y-24396D01*
X48669Y-24396D02*
X47969Y-24396D01*
X47969Y-24230D01*
X48003Y-24130D01*
X48069Y-24063D01*
X48136Y-24030D01*
X48269Y-23996D01*
X48369Y-23996D01*
X48503Y-24030D01*
X48569Y-24063D01*
X48636Y-24130D01*
X48669Y-24230D01*
X48669Y-24396D01*
X33708Y-24396D02*
X33008Y-24396D01*
X33008Y-24230D01*
X33042Y-24130D01*
X33108Y-24063D01*
X33175Y-24030D01*
X33308Y-23996D01*
X33408Y-23996D01*
X33542Y-24030D01*
X33608Y-24063D01*
X33675Y-24130D01*
X33708Y-24230D01*
X33708Y-24396D01*
X143472Y-39356D02*
X142772Y-39356D01*
X142772Y-39190D01*
X142806Y-39090D01*
X142872Y-39023D01*
X142939Y-38990D01*
X143072Y-38956D01*
X143172Y-38956D01*
X143306Y-38990D01*
X143372Y-39023D01*
X143439Y-39090D01*
X143472Y-39190D01*
X143472Y-39356D01*
X119732Y-31876D02*
X119032Y-31876D01*
X119032Y-31710D01*
X119066Y-31610D01*
X119132Y-31543D01*
X119199Y-31510D01*
X119332Y-31476D01*
X119432Y-31476D01*
X119566Y-31510D01*
X119632Y-31543D01*
X119699Y-31610D01*
X119732Y-31710D01*
X119732Y-31876D01*
X104771Y-31876D02*
X104071Y-31876D01*
X104071Y-31710D01*
X104105Y-31610D01*
X104171Y-31543D01*
X104238Y-31510D01*
X104371Y-31476D01*
X104471Y-31476D01*
X104605Y-31510D01*
X104671Y-31543D01*
X104738Y-31610D01*
X104771Y-31710D01*
X104771Y-31876D01*
X89811Y-31876D02*
X89111Y-31876D01*
X89111Y-31710D01*
X89145Y-31610D01*
X89211Y-31543D01*
X89278Y-31510D01*
X89411Y-31476D01*
X89511Y-31476D01*
X89645Y-31510D01*
X89711Y-31543D01*
X89778Y-31610D01*
X89811Y-31710D01*
X89811Y-31876D01*
X74850Y-31876D02*
X74150Y-31876D01*
X74150Y-31710D01*
X74184Y-31610D01*
X74250Y-31543D01*
X74317Y-31510D01*
X74450Y-31476D01*
X74550Y-31476D01*
X74684Y-31510D01*
X74750Y-31543D01*
X74817Y-31610D01*
X74850Y-31710D01*
X74850Y-31876D01*
X59889Y-31876D02*
X59189Y-31876D01*
X59189Y-31710D01*
X59223Y-31610D01*
X59289Y-31543D01*
X59356Y-31510D01*
X59489Y-31476D01*
X59589Y-31476D01*
X59723Y-31510D01*
X59789Y-31543D01*
X59856Y-31610D01*
X59889Y-31710D01*
X59889Y-31876D01*
X44929Y-31876D02*
X44229Y-31876D01*
X44229Y-31710D01*
X44263Y-31610D01*
X44329Y-31543D01*
X44396Y-31510D01*
X44529Y-31476D01*
X44629Y-31476D01*
X44763Y-31510D01*
X44829Y-31543D01*
X44896Y-31610D01*
X44929Y-31710D01*
X44929Y-31876D01*
X50559Y-46837D02*
X49859Y-46837D01*
X49859Y-46671D01*
X49893Y-46571D01*
X49959Y-46504D01*
X50026Y-46471D01*
X50159Y-46437D01*
X50259Y-46437D01*
X50393Y-46471D01*
X50459Y-46504D01*
X50526Y-46571D01*
X50559Y-46671D01*
X50559Y-46837D01*
X65519Y-46837D02*
X64819Y-46837D01*
X64819Y-46671D01*
X64853Y-46571D01*
X64919Y-46504D01*
X64986Y-46471D01*
X65119Y-46437D01*
X65219Y-46437D01*
X65353Y-46471D01*
X65419Y-46504D01*
X65486Y-46571D01*
X65519Y-46671D01*
X65519Y-46837D01*
X80480Y-46837D02*
X79780Y-46837D01*
X79780Y-46671D01*
X79814Y-46571D01*
X79880Y-46504D01*
X79947Y-46471D01*
X80080Y-46437D01*
X80180Y-46437D01*
X80314Y-46471D01*
X80380Y-46504D01*
X80447Y-46571D01*
X80480Y-46671D01*
X80480Y-46837D01*
X95440Y-46837D02*
X94740Y-46837D01*
X94740Y-46671D01*
X94774Y-46571D01*
X94840Y-46504D01*
X94907Y-46471D01*
X95040Y-46437D01*
X95140Y-46437D01*
X95274Y-46471D01*
X95340Y-46504D01*
X95407Y-46571D01*
X95440Y-46671D01*
X95440Y-46837D01*
X114141Y-46837D02*
X113441Y-46837D01*
X113441Y-46671D01*
X113475Y-46571D01*
X113541Y-46504D01*
X113608Y-46471D01*
X113741Y-46437D01*
X113841Y-46437D01*
X113975Y-46471D01*
X114041Y-46504D01*
X114108Y-46571D01*
X114141Y-46671D01*
X114141Y-46837D01*
X143472Y-24396D02*
X142772Y-24396D01*
X142772Y-24230D01*
X142806Y-24130D01*
X142872Y-24063D01*
X142939Y-24030D01*
X143072Y-23996D01*
X143172Y-23996D01*
X143306Y-24030D01*
X143372Y-24063D01*
X143439Y-24130D01*
X143472Y-24230D01*
X143472Y-24396D01*
X16877Y-46837D02*
X16177Y-46837D01*
X16177Y-46671D01*
X16211Y-46571D01*
X16277Y-46504D01*
X16344Y-46471D01*
X16477Y-46437D01*
X16577Y-46437D01*
X16711Y-46471D01*
X16777Y-46504D01*
X16844Y-46571D01*
X16877Y-46671D01*
X16877Y-46837D01*
X39338Y-39356D02*
X38638Y-39356D01*
X38638Y-39190D01*
X38672Y-39090D01*
X38738Y-39023D01*
X38805Y-38990D01*
X38938Y-38956D01*
X39038Y-38956D01*
X39172Y-38990D01*
X39238Y-39023D01*
X39305Y-39090D01*
X39338Y-39190D01*
X39338Y-39356D01*
X54299Y-39356D02*
X53599Y-39356D01*
X53599Y-39190D01*
X53633Y-39090D01*
X53699Y-39023D01*
X53766Y-38990D01*
X53899Y-38956D01*
X53999Y-38956D01*
X54133Y-38990D01*
X54199Y-39023D01*
X54266Y-39090D01*
X54299Y-39190D01*
X54299Y-39356D01*
X69259Y-39356D02*
X68559Y-39356D01*
X68559Y-39190D01*
X68593Y-39090D01*
X68659Y-39023D01*
X68726Y-38990D01*
X68859Y-38956D01*
X68959Y-38956D01*
X69093Y-38990D01*
X69159Y-39023D01*
X69226Y-39090D01*
X69259Y-39190D01*
X69259Y-39356D01*
X84220Y-39356D02*
X83520Y-39356D01*
X83520Y-39190D01*
X83554Y-39090D01*
X83620Y-39023D01*
X83687Y-38990D01*
X83820Y-38956D01*
X83920Y-38956D01*
X84054Y-38990D01*
X84120Y-39023D01*
X84187Y-39090D01*
X84220Y-39190D01*
X84220Y-39356D01*
X99181Y-39356D02*
X98481Y-39356D01*
X98481Y-39190D01*
X98515Y-39090D01*
X98581Y-39023D01*
X98648Y-38990D01*
X98781Y-38956D01*
X98881Y-38956D01*
X99015Y-38990D01*
X99081Y-39023D01*
X99148Y-39090D01*
X99181Y-39190D01*
X99181Y-39356D01*
X114141Y-39356D02*
X113441Y-39356D01*
X113441Y-39190D01*
X113475Y-39090D01*
X113541Y-39023D01*
X113608Y-38990D01*
X113741Y-38956D01*
X113841Y-38956D01*
X113975Y-38990D01*
X114041Y-39023D01*
X114108Y-39090D01*
X114141Y-39190D01*
X114141Y-39356D01*
X143472Y-31876D02*
X142772Y-31876D01*
X142772Y-31710D01*
X142806Y-31610D01*
X142872Y-31543D01*
X142939Y-31510D01*
X143072Y-31476D01*
X143172Y-31476D01*
X143306Y-31510D01*
X143372Y-31543D01*
X143439Y-31610D01*
X143472Y-31710D01*
X143472Y-31876D01*
X29968Y-31876D02*
X29268Y-31876D01*
X29268Y-31710D01*
X29302Y-31610D01*
X29368Y-31543D01*
X29435Y-31510D01*
X29568Y-31476D01*
X29668Y-31476D01*
X29802Y-31510D01*
X29868Y-31543D01*
X29935Y-31610D01*
X29968Y-31710D01*
X29968Y-31876D01*
G54D13*
X09842Y-23379D02*
X09842Y-22979D01*
X10014Y-23379D02*
X10014Y-23169D01*
X09995Y-23131D01*
X09957Y-23112D01*
X09899Y-23112D01*
X09861Y-23131D01*
X09842Y-23150D01*
X10414Y-23379D02*
X10185Y-23379D01*
X10299Y-23379D02*
X10299Y-22979D01*
X10261Y-23036D01*
X10223Y-23074D01*
X10185Y-23093D01*
X09842Y-54899D02*
X09842Y-54499D01*
X10014Y-54899D02*
X10014Y-54689D01*
X09995Y-54651D01*
X09957Y-54632D01*
X09899Y-54632D01*
X09861Y-54651D01*
X09842Y-54670D01*
X10185Y-54537D02*
X10204Y-54518D01*
X10242Y-54499D01*
X10338Y-54499D01*
X10376Y-54518D01*
X10395Y-54537D01*
X10414Y-54575D01*
X10414Y-54613D01*
X10395Y-54670D01*
X10166Y-54899D01*
X10414Y-54899D01*
X153956Y-54899D02*
X153956Y-54499D01*
X154128Y-54899D02*
X154128Y-54689D01*
X154109Y-54651D01*
X154071Y-54632D01*
X154013Y-54632D01*
X153975Y-54651D01*
X153956Y-54670D01*
X154280Y-54499D02*
X154528Y-54499D01*
X154394Y-54651D01*
X154452Y-54651D01*
X154490Y-54670D01*
X154509Y-54689D01*
X154528Y-54727D01*
X154528Y-54823D01*
X154509Y-54861D01*
X154490Y-54880D01*
X154452Y-54899D01*
X154337Y-54899D01*
X154299Y-54880D01*
X154280Y-54861D01*
X153956Y-23379D02*
X153956Y-22979D01*
X154128Y-23379D02*
X154128Y-23169D01*
X154109Y-23131D01*
X154071Y-23112D01*
X154013Y-23112D01*
X153975Y-23131D01*
X153956Y-23150D01*
X154490Y-23112D02*
X154490Y-23379D01*
X154394Y-22960D02*
X154299Y-23246D01*
X154547Y-23246D01*
G54D12*
X125677Y-53136D02*
X124977Y-53136D01*
X124977Y-52970D01*
X125011Y-52870D01*
X125077Y-52803D01*
X125144Y-52770D01*
X125277Y-52736D01*
X125377Y-52736D01*
X125511Y-52770D01*
X125577Y-52803D01*
X125644Y-52870D01*
X125677Y-52970D01*
X125677Y-53136D01*
X143000Y-53136D02*
X142300Y-53136D01*
X142300Y-52970D01*
X142334Y-52870D01*
X142400Y-52803D01*
X142467Y-52770D01*
X142600Y-52736D01*
X142700Y-52736D01*
X142834Y-52770D01*
X142900Y-52803D01*
X142967Y-52870D01*
X143000Y-52970D01*
X143000Y-53136D01*
X144771Y-53136D02*
X144071Y-53136D01*
X144071Y-52970D01*
X144105Y-52870D01*
X144171Y-52803D01*
X144238Y-52770D01*
X144371Y-52736D01*
X144471Y-52736D01*
X144605Y-52770D01*
X144671Y-52803D01*
X144738Y-52870D01*
X144771Y-52970D01*
X144771Y-53136D01*
X123905Y-53136D02*
X123205Y-53136D01*
X123205Y-52970D01*
X123239Y-52870D01*
X123305Y-52803D01*
X123372Y-52770D01*
X123505Y-52736D01*
X123605Y-52736D01*
X123739Y-52770D01*
X123805Y-52803D01*
X123872Y-52870D01*
X123905Y-52970D01*
X123905Y-53136D01*
X122133Y-53136D02*
X121433Y-53136D01*
X121433Y-52970D01*
X121467Y-52870D01*
X121533Y-52803D01*
X121600Y-52770D01*
X121733Y-52736D01*
X121833Y-52736D01*
X121967Y-52770D01*
X122033Y-52803D01*
X122100Y-52870D01*
X122133Y-52970D01*
X122133Y-53136D01*
X120362Y-53136D02*
X119662Y-53136D01*
X119662Y-52970D01*
X119696Y-52870D01*
X119762Y-52803D01*
X119829Y-52770D01*
X119962Y-52736D01*
X120062Y-52736D01*
X120196Y-52770D01*
X120262Y-52803D01*
X120329Y-52870D01*
X120362Y-52970D01*
X120362Y-53136D01*
X146543Y-53136D02*
X145843Y-53136D01*
X145843Y-52970D01*
X145877Y-52870D01*
X145943Y-52803D01*
X146010Y-52770D01*
X146143Y-52736D01*
X146243Y-52736D01*
X146377Y-52770D01*
X146443Y-52803D01*
X146510Y-52870D01*
X146543Y-52970D01*
X146543Y-53136D01*
X148314Y-53136D02*
X147614Y-53136D01*
X147614Y-52970D01*
X147648Y-52870D01*
X147714Y-52803D01*
X147781Y-52770D01*
X147914Y-52736D01*
X148014Y-52736D01*
X148148Y-52770D01*
X148214Y-52803D01*
X148281Y-52870D01*
X148314Y-52970D01*
X148314Y-53136D01*
X150086Y-53136D02*
X149386Y-53136D01*
X149386Y-52970D01*
X149420Y-52870D01*
X149486Y-52803D01*
X149553Y-52770D01*
X149686Y-52736D01*
X149786Y-52736D01*
X149920Y-52770D01*
X149986Y-52803D01*
X150053Y-52870D01*
X150086Y-52970D01*
X150086Y-53136D01*
X22405Y-27000D02*
X22005Y-27000D01*
X22205Y-27000D02*
X22205Y-26300D01*
X22139Y-26400D01*
X22072Y-26467D01*
X22005Y-26500D01*
X36932Y-26300D02*
X37365Y-26300D01*
X37132Y-26567D01*
X37232Y-26567D01*
X37299Y-26600D01*
X37332Y-26634D01*
X37365Y-26700D01*
X37365Y-26867D01*
X37332Y-26934D01*
X37299Y-26967D01*
X37232Y-27000D01*
X37032Y-27000D01*
X36965Y-26967D01*
X36932Y-26934D01*
X52293Y-26300D02*
X51960Y-26300D01*
X51926Y-26634D01*
X51960Y-26600D01*
X52026Y-26567D01*
X52193Y-26567D01*
X52260Y-26600D01*
X52293Y-26634D01*
X52326Y-26700D01*
X52326Y-26867D01*
X52293Y-26934D01*
X52260Y-26967D01*
X52193Y-27000D01*
X52026Y-27000D01*
X51960Y-26967D01*
X51926Y-26934D01*
X66854Y-26300D02*
X67321Y-26300D01*
X67021Y-27000D01*
X81914Y-27000D02*
X82047Y-27000D01*
X82114Y-26967D01*
X82147Y-26934D01*
X82214Y-26834D01*
X82247Y-26700D01*
X82247Y-26434D01*
X82214Y-26367D01*
X82181Y-26334D01*
X82114Y-26300D01*
X81981Y-26300D01*
X81914Y-26334D01*
X81881Y-26367D01*
X81847Y-26434D01*
X81847Y-26600D01*
X81881Y-26667D01*
X81914Y-26700D01*
X81981Y-26734D01*
X82114Y-26734D01*
X82181Y-26700D01*
X82214Y-26667D01*
X82247Y-26600D01*
X96742Y-26734D02*
X97275Y-26734D01*
X97008Y-27000D02*
X97008Y-26467D01*
X111786Y-26534D02*
X112053Y-26534D01*
X111786Y-27000D02*
X112153Y-27000D01*
X111886Y-27000D02*
X111886Y-26400D01*
X111920Y-26334D01*
X111986Y-26300D01*
X112086Y-26300D01*
X112153Y-26334D01*
X126146Y-27000D02*
X126146Y-26300D01*
X126312Y-26300D01*
X126412Y-26334D01*
X126479Y-26400D01*
X126512Y-26467D01*
X126546Y-26600D01*
X126546Y-26700D01*
X126512Y-26834D01*
X126479Y-26900D01*
X126412Y-26967D01*
X126312Y-27000D01*
X126146Y-27000D01*
X126846Y-26634D02*
X127079Y-26634D01*
X127179Y-27000D02*
X126846Y-27000D01*
X126846Y-26300D01*
X127179Y-26300D01*
X127812Y-27000D02*
X127479Y-27000D01*
X127479Y-26300D01*
X14124Y-26534D02*
X13591Y-26734D01*
X14124Y-26934D01*
X14458Y-26734D02*
X14991Y-26734D01*
X15325Y-26734D02*
X15858Y-26734D01*
X33125Y-33780D02*
X33292Y-34480D01*
X33425Y-33980D01*
X33558Y-34480D01*
X33725Y-33780D01*
X48603Y-34480D02*
X48369Y-34147D01*
X48203Y-34480D02*
X48203Y-33780D01*
X48469Y-33780D01*
X48536Y-33814D01*
X48569Y-33847D01*
X48603Y-33914D01*
X48603Y-34014D01*
X48569Y-34080D01*
X48536Y-34114D01*
X48469Y-34147D01*
X48203Y-34147D01*
X63346Y-34147D02*
X63346Y-34480D01*
X63113Y-33780D02*
X63346Y-34147D01*
X63579Y-33780D01*
X78308Y-34480D02*
X78308Y-33780D01*
X93085Y-34480D02*
X93085Y-33780D01*
X93351Y-33780D01*
X93418Y-33814D01*
X93451Y-33847D01*
X93485Y-33914D01*
X93485Y-34014D01*
X93451Y-34080D01*
X93418Y-34114D01*
X93351Y-34147D01*
X93085Y-34147D01*
X108229Y-33780D02*
X108229Y-33947D01*
X108062Y-33880D02*
X108229Y-33947D01*
X108395Y-33880D01*
X108129Y-34080D02*
X108229Y-33947D01*
X108329Y-34080D01*
X119890Y-41960D02*
X119656Y-41627D01*
X119490Y-41960D02*
X119490Y-41260D01*
X119756Y-41260D01*
X119823Y-41294D01*
X119856Y-41327D01*
X119890Y-41394D01*
X119890Y-41494D01*
X119856Y-41560D01*
X119823Y-41594D01*
X119756Y-41627D01*
X119490Y-41627D01*
X120190Y-41594D02*
X120423Y-41594D01*
X120523Y-41960D02*
X120190Y-41960D01*
X120190Y-41260D01*
X120523Y-41260D01*
X120723Y-41260D02*
X121123Y-41260D01*
X120923Y-41960D02*
X120923Y-41260D01*
X121356Y-41260D02*
X121356Y-41827D01*
X121389Y-41894D01*
X121422Y-41927D01*
X121489Y-41960D01*
X121622Y-41960D01*
X121689Y-41927D01*
X121722Y-41894D01*
X121756Y-41827D01*
X121756Y-41260D01*
X122489Y-41960D02*
X122255Y-41627D01*
X122089Y-41960D02*
X122089Y-41260D01*
X122355Y-41260D01*
X122422Y-41294D01*
X122455Y-41327D01*
X122489Y-41394D01*
X122489Y-41494D01*
X122455Y-41560D01*
X122422Y-41594D01*
X122355Y-41627D01*
X122089Y-41627D01*
X122789Y-41960D02*
X122789Y-41260D01*
X123189Y-41960D01*
X123189Y-41260D01*
X17782Y-34414D02*
X17748Y-34447D01*
X17648Y-34480D01*
X17582Y-34480D01*
X17482Y-34447D01*
X17415Y-34380D01*
X17382Y-34314D01*
X17348Y-34180D01*
X17348Y-34080D01*
X17382Y-33947D01*
X17415Y-33880D01*
X17482Y-33814D01*
X17582Y-33780D01*
X17648Y-33780D01*
X17748Y-33814D01*
X17782Y-33847D01*
X17982Y-33780D02*
X18382Y-33780D01*
X18182Y-34480D02*
X18182Y-33780D01*
X19015Y-34480D02*
X18781Y-34147D01*
X18615Y-34480D02*
X18615Y-33780D01*
X18881Y-33780D01*
X18948Y-33814D01*
X18981Y-33847D01*
X19015Y-33914D01*
X19015Y-34014D01*
X18981Y-34080D01*
X18948Y-34114D01*
X18881Y-34147D01*
X18615Y-34147D01*
X19648Y-34480D02*
X19315Y-34480D01*
X19315Y-33780D01*
X27668Y-41760D02*
X28002Y-41760D01*
X27602Y-41960D02*
X27835Y-41260D01*
X28068Y-41960D01*
X42612Y-41960D02*
X42612Y-41260D01*
X42778Y-41260D01*
X42878Y-41294D01*
X42945Y-41360D01*
X42978Y-41427D01*
X43012Y-41560D01*
X43012Y-41660D01*
X42978Y-41794D01*
X42945Y-41860D01*
X42878Y-41927D01*
X42778Y-41960D01*
X42612Y-41960D01*
X57939Y-41294D02*
X57873Y-41260D01*
X57773Y-41260D01*
X57673Y-41294D01*
X57606Y-41360D01*
X57573Y-41427D01*
X57539Y-41560D01*
X57539Y-41660D01*
X57573Y-41794D01*
X57606Y-41860D01*
X57673Y-41927D01*
X57773Y-41960D01*
X57839Y-41960D01*
X57939Y-41927D01*
X57973Y-41894D01*
X57973Y-41660D01*
X57839Y-41660D01*
X72818Y-41260D02*
X72818Y-41760D01*
X72784Y-41860D01*
X72718Y-41927D01*
X72618Y-41960D01*
X72551Y-41960D01*
X87894Y-41960D02*
X87561Y-41960D01*
X87561Y-41260D01*
X102672Y-41927D02*
X102672Y-41960D01*
X102639Y-42027D01*
X102605Y-42060D01*
X102639Y-41527D02*
X102672Y-41560D01*
X102639Y-41594D01*
X102605Y-41560D01*
X102639Y-41527D01*
X102639Y-41594D01*
X124579Y-49440D02*
X124246Y-49440D01*
X124246Y-48740D01*
X125313Y-48707D02*
X124713Y-49607D01*
X125946Y-49440D02*
X125712Y-49107D01*
X125546Y-49440D02*
X125546Y-48740D01*
X125812Y-48740D01*
X125879Y-48774D01*
X125912Y-48807D01*
X125946Y-48874D01*
X125946Y-48974D01*
X125912Y-49040D01*
X125879Y-49074D01*
X125812Y-49107D01*
X125546Y-49107D01*
X10675Y-41960D02*
X10441Y-41627D01*
X10275Y-41960D02*
X10275Y-41260D01*
X10541Y-41260D01*
X10608Y-41294D01*
X10641Y-41327D01*
X10675Y-41394D01*
X10675Y-41494D01*
X10641Y-41560D01*
X10608Y-41594D01*
X10541Y-41627D01*
X10275Y-41627D01*
X10975Y-41260D02*
X10975Y-41827D01*
X11008Y-41894D01*
X11041Y-41927D01*
X11108Y-41960D01*
X11241Y-41960D01*
X11308Y-41927D01*
X11341Y-41894D01*
X11375Y-41827D01*
X11375Y-41260D01*
X11708Y-41960D02*
X11708Y-41260D01*
X12108Y-41960D01*
X12108Y-41260D01*
X12941Y-41227D02*
X12341Y-42127D01*
X13140Y-41927D02*
X13240Y-41960D01*
X13407Y-41960D01*
X13474Y-41927D01*
X13507Y-41894D01*
X13540Y-41827D01*
X13540Y-41760D01*
X13507Y-41694D01*
X13474Y-41660D01*
X13407Y-41627D01*
X13274Y-41594D01*
X13207Y-41560D01*
X13174Y-41527D01*
X13140Y-41460D01*
X13140Y-41394D01*
X13174Y-41327D01*
X13207Y-41294D01*
X13274Y-41260D01*
X13440Y-41260D01*
X13540Y-41294D01*
X13741Y-41260D02*
X14141Y-41260D01*
X13941Y-41960D02*
X13941Y-41260D01*
X14507Y-41260D02*
X14640Y-41260D01*
X14707Y-41294D01*
X14774Y-41360D01*
X14807Y-41494D01*
X14807Y-41727D01*
X14774Y-41860D01*
X14707Y-41927D01*
X14640Y-41960D01*
X14507Y-41960D01*
X14440Y-41927D01*
X14374Y-41860D01*
X14340Y-41727D01*
X14340Y-41494D01*
X14374Y-41360D01*
X14440Y-41294D01*
X14507Y-41260D01*
X15107Y-41960D02*
X15107Y-41260D01*
X15373Y-41260D01*
X15440Y-41294D01*
X15473Y-41327D01*
X15507Y-41394D01*
X15507Y-41494D01*
X15473Y-41560D01*
X15440Y-41594D01*
X15373Y-41627D01*
X15107Y-41627D01*
X22444Y-49440D02*
X22111Y-49440D01*
X22111Y-48740D01*
X22678Y-49174D02*
X23211Y-49174D01*
X23511Y-49407D02*
X23611Y-49440D01*
X23778Y-49440D01*
X23845Y-49407D01*
X23878Y-49374D01*
X23911Y-49307D01*
X23911Y-49240D01*
X23878Y-49174D01*
X23845Y-49140D01*
X23778Y-49107D01*
X23645Y-49074D01*
X23578Y-49040D01*
X23545Y-49007D01*
X23511Y-48940D01*
X23511Y-48874D01*
X23545Y-48807D01*
X23578Y-48774D01*
X23645Y-48740D01*
X23811Y-48740D01*
X23911Y-48774D01*
X24212Y-49440D02*
X24212Y-48740D01*
X24212Y-49074D02*
X24612Y-49074D01*
X24612Y-49440D02*
X24612Y-48740D01*
X24945Y-49440D02*
X24945Y-48740D01*
X25511Y-49074D02*
X25278Y-49074D01*
X25278Y-49440D02*
X25278Y-48740D01*
X25611Y-48740D01*
X25778Y-48740D02*
X26178Y-48740D01*
X25978Y-49440D02*
X25978Y-48740D01*
X38822Y-48740D02*
X39289Y-49440D01*
X39289Y-48740D02*
X38822Y-49440D01*
X53783Y-48740D02*
X54016Y-49440D01*
X54249Y-48740D01*
X68777Y-49440D02*
X68777Y-48740D01*
X69177Y-49440D01*
X69177Y-48740D01*
X83971Y-49407D02*
X83971Y-49440D01*
X83938Y-49507D01*
X83904Y-49540D01*
X99198Y-48707D02*
X98598Y-49607D01*
X116682Y-48740D02*
X116682Y-49307D01*
X116715Y-49374D01*
X116748Y-49407D01*
X116815Y-49440D01*
X116948Y-49440D01*
X117015Y-49407D01*
X117048Y-49374D01*
X117082Y-49307D01*
X117082Y-48740D01*
X117915Y-48707D02*
X117315Y-49607D01*
X118148Y-49440D02*
X118148Y-48740D01*
X118314Y-48740D01*
X118414Y-48774D01*
X118481Y-48840D01*
X118514Y-48907D01*
X118548Y-49040D01*
X118548Y-49140D01*
X118514Y-49274D01*
X118481Y-49340D01*
X118414Y-49407D01*
X118314Y-49440D01*
X118148Y-49440D01*
X61908Y-56888D02*
X62008Y-56921D01*
X62175Y-56921D01*
X62242Y-56888D01*
X62275Y-56855D01*
X62308Y-56788D01*
X62308Y-56721D01*
X62275Y-56655D01*
X62242Y-56621D01*
X62175Y-56588D01*
X62042Y-56555D01*
X61975Y-56521D01*
X61942Y-56488D01*
X61908Y-56421D01*
X61908Y-56355D01*
X61942Y-56288D01*
X61975Y-56255D01*
X62042Y-56221D01*
X62208Y-56221D01*
X62308Y-56255D01*
X62609Y-56921D02*
X62609Y-56221D01*
X62875Y-56221D01*
X62942Y-56255D01*
X62975Y-56288D01*
X63009Y-56355D01*
X63009Y-56455D01*
X62975Y-56521D01*
X62942Y-56555D01*
X62875Y-56588D01*
X62609Y-56588D01*
X63275Y-56721D02*
X63609Y-56721D01*
X63209Y-56921D02*
X63442Y-56221D01*
X63675Y-56921D01*
X64309Y-56855D02*
X64275Y-56888D01*
X64175Y-56921D01*
X64109Y-56921D01*
X64009Y-56888D01*
X63942Y-56821D01*
X63909Y-56755D01*
X63875Y-56621D01*
X63875Y-56521D01*
X63909Y-56388D01*
X63942Y-56321D01*
X64009Y-56255D01*
X64109Y-56221D01*
X64175Y-56221D01*
X64275Y-56255D01*
X64309Y-56288D01*
X64609Y-56555D02*
X64842Y-56555D01*
X64942Y-56921D02*
X64609Y-56921D01*
X64609Y-56221D01*
X64942Y-56221D01*
X31342Y-48740D02*
X31809Y-48740D01*
X31342Y-49440D01*
X31809Y-49440D01*
X46752Y-49374D02*
X46718Y-49407D01*
X46618Y-49440D01*
X46552Y-49440D01*
X46452Y-49407D01*
X46385Y-49340D01*
X46352Y-49274D01*
X46318Y-49140D01*
X46318Y-49040D01*
X46352Y-48907D01*
X46385Y-48840D01*
X46452Y-48774D01*
X46552Y-48740D01*
X46618Y-48740D01*
X46718Y-48774D01*
X46752Y-48807D01*
X61546Y-49074D02*
X61646Y-49107D01*
X61679Y-49140D01*
X61713Y-49207D01*
X61713Y-49307D01*
X61679Y-49374D01*
X61646Y-49407D01*
X61579Y-49440D01*
X61313Y-49440D01*
X61313Y-48740D01*
X61546Y-48740D01*
X61613Y-48774D01*
X61646Y-48807D01*
X61679Y-48874D01*
X61679Y-48940D01*
X61646Y-49007D01*
X61613Y-49040D01*
X61546Y-49074D01*
X61313Y-49074D01*
X76224Y-49440D02*
X76224Y-48740D01*
X76457Y-49240D01*
X76690Y-48740D01*
X76690Y-49440D01*
X91418Y-49374D02*
X91451Y-49407D01*
X91418Y-49440D01*
X91384Y-49407D01*
X91418Y-49374D01*
X91418Y-49440D01*
X108469Y-49440D02*
X108235Y-49107D01*
X108069Y-49440D02*
X108069Y-48740D01*
X108335Y-48740D01*
X108402Y-48774D01*
X108435Y-48807D01*
X108469Y-48874D01*
X108469Y-48974D01*
X108435Y-49040D01*
X108402Y-49074D01*
X108335Y-49107D01*
X108069Y-49107D01*
X108769Y-49174D02*
X109302Y-49174D01*
X109602Y-49407D02*
X109702Y-49440D01*
X109869Y-49440D01*
X109936Y-49407D01*
X109969Y-49374D01*
X110002Y-49307D01*
X110002Y-49240D01*
X109969Y-49174D01*
X109936Y-49140D01*
X109869Y-49107D01*
X109736Y-49074D01*
X109669Y-49040D01*
X109636Y-49007D01*
X109602Y-48940D01*
X109602Y-48874D01*
X109636Y-48807D01*
X109669Y-48774D01*
X109736Y-48740D01*
X109902Y-48740D01*
X110002Y-48774D01*
X110303Y-49440D02*
X110303Y-48740D01*
X110303Y-49074D02*
X110703Y-49074D01*
X110703Y-49440D02*
X110703Y-48740D01*
X111036Y-49440D02*
X111036Y-48740D01*
X111602Y-49074D02*
X111369Y-49074D01*
X111369Y-49440D02*
X111369Y-48740D01*
X111702Y-48740D01*
X111869Y-48740D02*
X112269Y-48740D01*
X112069Y-49440D02*
X112069Y-48740D01*
X146696Y-26634D02*
X146463Y-26634D01*
X146463Y-27000D02*
X146463Y-26300D01*
X146796Y-26300D01*
X147429Y-27000D02*
X147029Y-27000D01*
X147229Y-27000D02*
X147229Y-26300D01*
X147163Y-26400D01*
X147096Y-26467D01*
X147029Y-26500D01*
X12658Y-49374D02*
X12624Y-49407D01*
X12524Y-49440D01*
X12458Y-49440D01*
X12358Y-49407D01*
X12291Y-49340D01*
X12258Y-49274D01*
X12224Y-49140D01*
X12224Y-49040D01*
X12258Y-48907D01*
X12291Y-48840D01*
X12358Y-48774D01*
X12458Y-48740D01*
X12524Y-48740D01*
X12624Y-48774D01*
X12658Y-48807D01*
X12958Y-49074D02*
X13491Y-49074D01*
X13491Y-49274D02*
X12958Y-49274D01*
X35115Y-41927D02*
X35215Y-41960D01*
X35382Y-41960D01*
X35449Y-41927D01*
X35482Y-41894D01*
X35515Y-41827D01*
X35515Y-41760D01*
X35482Y-41694D01*
X35449Y-41660D01*
X35382Y-41627D01*
X35249Y-41594D01*
X35182Y-41560D01*
X35149Y-41527D01*
X35115Y-41460D01*
X35115Y-41394D01*
X35149Y-41327D01*
X35182Y-41294D01*
X35249Y-41260D01*
X35415Y-41260D01*
X35515Y-41294D01*
X50376Y-41594D02*
X50143Y-41594D01*
X50143Y-41960D02*
X50143Y-41260D01*
X50476Y-41260D01*
X65037Y-41960D02*
X65037Y-41260D01*
X65037Y-41594D02*
X65437Y-41594D01*
X65437Y-41960D02*
X65437Y-41260D01*
X80014Y-41960D02*
X80014Y-41260D01*
X80414Y-41960D02*
X80114Y-41560D01*
X80414Y-41260D02*
X80014Y-41660D01*
X95158Y-41894D02*
X95191Y-41927D01*
X95158Y-41960D01*
X95124Y-41927D01*
X95158Y-41894D01*
X95158Y-41960D01*
X95158Y-41527D02*
X95191Y-41560D01*
X95158Y-41594D01*
X95124Y-41560D01*
X95158Y-41527D01*
X95158Y-41594D01*
X109852Y-41594D02*
X110385Y-41594D01*
X110385Y-41794D02*
X109852Y-41794D01*
X146696Y-34114D02*
X146463Y-34114D01*
X146463Y-34480D02*
X146463Y-33780D01*
X146796Y-33780D01*
X146996Y-33780D02*
X147429Y-33780D01*
X147196Y-34047D01*
X147296Y-34047D01*
X147363Y-34080D01*
X147396Y-34114D01*
X147429Y-34180D01*
X147429Y-34347D01*
X147396Y-34414D01*
X147363Y-34447D01*
X147296Y-34480D01*
X147096Y-34480D01*
X147029Y-34447D01*
X146996Y-34414D01*
X26212Y-34547D02*
X26146Y-34514D01*
X26079Y-34447D01*
X25979Y-34347D01*
X25912Y-34314D01*
X25846Y-34314D01*
X25879Y-34480D02*
X25812Y-34447D01*
X25746Y-34380D01*
X25712Y-34247D01*
X25712Y-34014D01*
X25746Y-33880D01*
X25812Y-33814D01*
X25879Y-33780D01*
X26012Y-33780D01*
X26079Y-33814D01*
X26146Y-33880D01*
X26179Y-34014D01*
X26179Y-34247D01*
X26146Y-34380D01*
X26079Y-34447D01*
X26012Y-34480D01*
X25879Y-34480D01*
X40757Y-34114D02*
X40990Y-34114D01*
X41090Y-34480D02*
X40757Y-34480D01*
X40757Y-33780D01*
X41090Y-33780D01*
X55667Y-33780D02*
X56067Y-33780D01*
X55867Y-34480D02*
X55867Y-33780D01*
X70628Y-33780D02*
X70628Y-34347D01*
X70661Y-34414D01*
X70694Y-34447D01*
X70761Y-34480D01*
X70894Y-34480D01*
X70961Y-34447D01*
X70994Y-34414D01*
X71028Y-34347D01*
X71028Y-33780D01*
X85721Y-33780D02*
X85854Y-33780D01*
X85921Y-33814D01*
X85988Y-33880D01*
X86021Y-34014D01*
X86021Y-34247D01*
X85988Y-34380D01*
X85921Y-34447D01*
X85854Y-34480D01*
X85721Y-34480D01*
X85654Y-34447D01*
X85588Y-34380D01*
X85554Y-34247D01*
X85554Y-34014D01*
X85588Y-33880D01*
X85654Y-33814D01*
X85721Y-33780D01*
X100898Y-34147D02*
X100865Y-34114D01*
X100798Y-34080D01*
X100731Y-34080D01*
X100665Y-34114D01*
X100631Y-34147D01*
X100598Y-34214D01*
X100598Y-34280D01*
X100631Y-34347D01*
X100665Y-34380D01*
X100731Y-34414D01*
X100798Y-34414D01*
X100865Y-34380D01*
X100898Y-34347D01*
X100898Y-34080D02*
X100898Y-34347D01*
X100931Y-34380D01*
X100965Y-34380D01*
X101031Y-34347D01*
X101065Y-34280D01*
X101065Y-34114D01*
X100998Y-34014D01*
X100898Y-33947D01*
X100765Y-33914D01*
X100631Y-33947D01*
X100531Y-34014D01*
X100465Y-34114D01*
X100431Y-34247D01*
X100465Y-34380D01*
X100531Y-34480D01*
X100631Y-34547D01*
X100765Y-34580D01*
X100898Y-34547D01*
X100998Y-34480D01*
X115160Y-33780D02*
X115160Y-34347D01*
X115193Y-34414D01*
X115226Y-34447D01*
X115293Y-34480D01*
X115426Y-34480D01*
X115493Y-34447D01*
X115526Y-34414D01*
X115560Y-34347D01*
X115560Y-33780D01*
X115893Y-34480D02*
X115893Y-33780D01*
X116159Y-33780D01*
X116226Y-33814D01*
X116259Y-33847D01*
X116293Y-33914D01*
X116293Y-34014D01*
X116259Y-34080D01*
X116226Y-34114D01*
X116159Y-34147D01*
X115893Y-34147D01*
X146696Y-41594D02*
X146463Y-41594D01*
X146463Y-41960D02*
X146463Y-41260D01*
X146796Y-41260D01*
X147396Y-41260D02*
X147063Y-41260D01*
X147029Y-41594D01*
X147063Y-41560D01*
X147129Y-41527D01*
X147296Y-41527D01*
X147363Y-41560D01*
X147396Y-41594D01*
X147429Y-41660D01*
X147429Y-41827D01*
X147396Y-41894D01*
X147363Y-41927D01*
X147296Y-41960D01*
X147129Y-41960D01*
X147063Y-41927D01*
X147029Y-41894D01*
X29485Y-26367D02*
X29519Y-26334D01*
X29585Y-26300D01*
X29752Y-26300D01*
X29819Y-26334D01*
X29852Y-26367D01*
X29885Y-26434D01*
X29885Y-26500D01*
X29852Y-26600D01*
X29452Y-27000D01*
X29885Y-27000D01*
X44780Y-26534D02*
X44780Y-27000D01*
X44613Y-26267D02*
X44446Y-26767D01*
X44880Y-26767D01*
X59740Y-26300D02*
X59606Y-26300D01*
X59540Y-26334D01*
X59506Y-26367D01*
X59440Y-26467D01*
X59406Y-26600D01*
X59406Y-26867D01*
X59440Y-26934D01*
X59473Y-26967D01*
X59540Y-27000D01*
X59673Y-27000D01*
X59740Y-26967D01*
X59773Y-26934D01*
X59806Y-26867D01*
X59806Y-26700D01*
X59773Y-26634D01*
X59740Y-26600D01*
X59673Y-26567D01*
X59540Y-26567D01*
X59473Y-26600D01*
X59440Y-26634D01*
X59406Y-26700D01*
X74501Y-26600D02*
X74434Y-26567D01*
X74401Y-26534D01*
X74367Y-26467D01*
X74367Y-26434D01*
X74401Y-26367D01*
X74434Y-26334D01*
X74501Y-26300D01*
X74634Y-26300D01*
X74701Y-26334D01*
X74734Y-26367D01*
X74767Y-26434D01*
X74767Y-26467D01*
X74734Y-26534D01*
X74701Y-26567D01*
X74634Y-26600D01*
X74501Y-26600D01*
X74434Y-26634D01*
X74401Y-26667D01*
X74367Y-26734D01*
X74367Y-26867D01*
X74401Y-26934D01*
X74434Y-26967D01*
X74501Y-27000D01*
X74634Y-27000D01*
X74701Y-26967D01*
X74734Y-26934D01*
X74767Y-26867D01*
X74767Y-26734D01*
X74734Y-26667D01*
X74701Y-26634D01*
X74634Y-26600D01*
X89495Y-26300D02*
X89562Y-26300D01*
X89628Y-26334D01*
X89662Y-26367D01*
X89695Y-26434D01*
X89728Y-26567D01*
X89728Y-26734D01*
X89695Y-26867D01*
X89662Y-26934D01*
X89628Y-26967D01*
X89562Y-27000D01*
X89495Y-27000D01*
X89428Y-26967D01*
X89395Y-26934D01*
X89362Y-26867D01*
X89328Y-26734D01*
X89328Y-26567D01*
X89362Y-26434D01*
X89395Y-26367D01*
X89428Y-26334D01*
X89495Y-26300D01*
X104222Y-26734D02*
X104755Y-26734D01*
X118167Y-27000D02*
X118167Y-26300D01*
X118167Y-26634D02*
X118567Y-26634D01*
X118567Y-27000D02*
X118567Y-26300D01*
X119033Y-26300D02*
X119166Y-26300D01*
X119233Y-26334D01*
X119300Y-26400D01*
X119333Y-26534D01*
X119333Y-26767D01*
X119300Y-26900D01*
X119233Y-26967D01*
X119166Y-27000D01*
X119033Y-27000D01*
X118966Y-26967D01*
X118900Y-26900D01*
X118866Y-26767D01*
X118866Y-26534D01*
X118900Y-26400D01*
X118966Y-26334D01*
X119033Y-26300D01*
X119633Y-27000D02*
X119633Y-26300D01*
X119866Y-26800D01*
X120099Y-26300D01*
X120099Y-27000D01*
X120433Y-26634D02*
X120666Y-26634D01*
X120766Y-27000D02*
X120433Y-27000D01*
X120433Y-26300D01*
X120766Y-26300D01*
X146696Y-49074D02*
X146463Y-49074D01*
X146463Y-49440D02*
X146463Y-48740D01*
X146796Y-48740D01*
X146996Y-48740D02*
X147463Y-48740D01*
X147163Y-49440D01*
X17271Y-41927D02*
X17371Y-41960D01*
X17538Y-41960D01*
X17605Y-41927D01*
X17638Y-41894D01*
X17671Y-41827D01*
X17671Y-41760D01*
X17638Y-41694D01*
X17605Y-41660D01*
X17538Y-41627D01*
X17405Y-41594D01*
X17338Y-41560D01*
X17305Y-41527D01*
X17271Y-41460D01*
X17271Y-41394D01*
X17305Y-41327D01*
X17338Y-41294D01*
X17405Y-41260D01*
X17571Y-41260D01*
X17671Y-41294D01*
X17972Y-41960D02*
X17972Y-41260D01*
X17972Y-41594D02*
X18372Y-41594D01*
X18372Y-41960D02*
X18372Y-41260D01*
X18705Y-41960D02*
X18705Y-41260D01*
X19271Y-41594D02*
X19038Y-41594D01*
X19038Y-41960D02*
X19038Y-41260D01*
X19371Y-41260D01*
X19538Y-41260D02*
X19938Y-41260D01*
X19738Y-41960D02*
X19738Y-41260D01*
X20171Y-41694D02*
X20704Y-41694D01*
X21371Y-41960D02*
X21038Y-41960D01*
X21038Y-41260D01*
X21738Y-41260D02*
X21871Y-41260D01*
X21938Y-41294D01*
X22005Y-41360D01*
X22038Y-41494D01*
X22038Y-41727D01*
X22005Y-41860D01*
X21938Y-41927D01*
X21871Y-41960D01*
X21738Y-41960D01*
X21671Y-41927D01*
X21605Y-41860D01*
X21571Y-41727D01*
X21571Y-41494D01*
X21605Y-41360D01*
X21671Y-41294D01*
X21738Y-41260D01*
X22738Y-41894D02*
X22704Y-41927D01*
X22604Y-41960D01*
X22538Y-41960D01*
X22438Y-41927D01*
X22371Y-41860D01*
X22338Y-41794D01*
X22304Y-41660D01*
X22304Y-41560D01*
X22338Y-41427D01*
X22371Y-41360D01*
X22438Y-41294D01*
X22538Y-41260D01*
X22604Y-41260D01*
X22704Y-41294D01*
X22738Y-41327D01*
X23038Y-41960D02*
X23038Y-41260D01*
X23438Y-41960D02*
X23138Y-41560D01*
X23438Y-41260D02*
X23038Y-41660D01*
X121457Y-34480D02*
X121223Y-34147D01*
X121057Y-34480D02*
X121057Y-33780D01*
X121323Y-33780D01*
X121390Y-33814D01*
X121423Y-33847D01*
X121457Y-33914D01*
X121457Y-34014D01*
X121423Y-34080D01*
X121390Y-34114D01*
X121323Y-34147D01*
X121057Y-34147D01*
X121757Y-34114D02*
X121990Y-34114D01*
X122090Y-34480D02*
X121757Y-34480D01*
X121757Y-33780D01*
X122090Y-33780D01*
X122356Y-34447D02*
X122456Y-34480D01*
X122623Y-34480D01*
X122690Y-34447D01*
X122723Y-34414D01*
X122756Y-34347D01*
X122756Y-34280D01*
X122723Y-34214D01*
X122690Y-34180D01*
X122623Y-34147D01*
X122490Y-34114D01*
X122423Y-34080D01*
X122390Y-34047D01*
X122356Y-33980D01*
X122356Y-33914D01*
X122390Y-33847D01*
X122423Y-33814D01*
X122490Y-33780D01*
X122656Y-33780D01*
X122756Y-33814D01*
X122957Y-33780D02*
X123357Y-33780D01*
X123157Y-34480D02*
X123157Y-33780D01*
X123723Y-33780D02*
X123856Y-33780D01*
X123923Y-33814D01*
X123990Y-33880D01*
X124023Y-34014D01*
X124023Y-34247D01*
X123990Y-34380D01*
X123923Y-34447D01*
X123856Y-34480D01*
X123723Y-34480D01*
X123656Y-34447D01*
X123590Y-34380D01*
X123556Y-34247D01*
X123556Y-34014D01*
X123590Y-33880D01*
X123656Y-33814D01*
X123723Y-33780D01*
X124723Y-34480D02*
X124489Y-34147D01*
X124323Y-34480D02*
X124323Y-33780D01*
X124589Y-33780D01*
X124656Y-33814D01*
X124689Y-33847D01*
X124723Y-33914D01*
X124723Y-34014D01*
X124689Y-34080D01*
X124656Y-34114D01*
X124589Y-34147D01*
X124323Y-34147D01*
X125023Y-34114D02*
X125256Y-34114D01*
X125356Y-34480D02*
X125023Y-34480D01*
X125023Y-33780D01*
X125356Y-33780D01*
M02*
