M48
;DRILL file {Pcbnew (2012-01-19 BZR 3256)-stable} date 07/10/2012 20:33:52
;FORMAT={-:-/ absolute / metric / decimal}
FMAT,2
METRIC,TZ
T1C0.635
T2C0.813
T3C0.991
T4C1.016
T5C1.499
T6C3.000
T7C3.988
%
G90
G05
M71
T1
X283.487Y-111.783
X298.681Y-141.628
X306.017Y-145.697
X307.830Y-87.683
X325.676Y-125.923
X327.005Y-126.759
X328.214Y-125.123
X329.093Y-139.042
X350.992Y-116.073
X351.922Y-121.775
T2
X369.590Y-111.549
X377.210Y-111.549
T3
X42.149Y-115.961
X42.149Y-121.041
X42.200Y-96.959
X42.200Y-102.039
X46.901Y-58.961
X46.901Y-64.041
X56.401Y-77.960
X56.401Y-83.040
X61.199Y-96.959
X61.199Y-102.039
X65.900Y-58.961
X65.900Y-64.041
X70.701Y-115.961
X70.701Y-121.041
X75.400Y-77.960
X75.400Y-83.040
X80.201Y-96.959
X80.201Y-102.039
X84.900Y-58.961
X84.900Y-64.041
X89.700Y-115.961
X89.700Y-121.041
X94.399Y-77.960
X94.399Y-83.040
X99.200Y-96.959
X99.200Y-102.039
X103.901Y-58.961
X103.901Y-64.041
X108.699Y-115.961
X108.699Y-121.041
X113.401Y-77.960
X113.401Y-83.040
X118.199Y-96.959
X118.199Y-102.039
X122.900Y-58.961
X122.900Y-64.041
X127.701Y-115.961
X127.701Y-121.041
X132.400Y-77.960
X132.400Y-83.040
X137.201Y-96.959
X137.201Y-102.039
X141.900Y-58.961
X141.900Y-64.041
X146.700Y-115.961
X146.700Y-121.041
X151.399Y-77.960
X151.399Y-83.040
X156.200Y-96.959
X156.200Y-102.039
X160.899Y-58.961
X160.899Y-64.041
X165.699Y-115.961
X165.699Y-121.041
X170.401Y-77.960
X170.401Y-83.040
X170.599Y-134.960
X170.599Y-140.040
X175.199Y-96.959
X175.199Y-102.039
X179.901Y-58.961
X179.901Y-64.041
X184.701Y-115.961
X184.701Y-121.041
X189.400Y-77.960
X189.400Y-83.040
X194.201Y-96.959
X194.201Y-102.039
X198.900Y-58.961
X198.900Y-64.041
X203.700Y-115.961
X203.700Y-121.041
X208.399Y-77.960
X208.399Y-83.040
X213.200Y-96.959
X213.200Y-102.039
X217.899Y-58.961
X217.899Y-64.041
X222.700Y-115.961
X222.700Y-121.041
X227.401Y-77.960
X227.401Y-83.040
X232.199Y-96.959
X232.199Y-102.039
X236.901Y-58.961
X236.901Y-64.041
X241.699Y-115.961
X241.699Y-121.041
X246.400Y-77.960
X246.400Y-83.040
X251.201Y-96.959
X251.201Y-102.039
X255.900Y-58.961
X255.900Y-64.041
X260.701Y-115.961
X260.701Y-121.041
X265.400Y-77.960
X265.400Y-83.040
X270.200Y-96.959
X270.200Y-102.039
X274.899Y-58.961
X274.899Y-64.041
X284.401Y-77.960
X284.401Y-83.040
X289.199Y-96.959
X289.199Y-102.039
X289.199Y-115.961
X289.199Y-121.041
X293.901Y-58.961
X293.901Y-64.041
X300.500Y-131.961
X300.500Y-137.041
X303.400Y-77.960
X303.400Y-83.040
X305.001Y-131.961
X305.001Y-137.041
X308.201Y-115.961
X308.201Y-121.041
X309.499Y-131.961
X309.499Y-137.041
X310.711Y-92.550
X312.900Y-58.961
X312.900Y-64.041
X314.000Y-131.961
X314.000Y-137.041
X315.161Y-111.549
X315.791Y-92.550
X318.501Y-131.961
X318.501Y-137.041
X319.961Y-73.500
X320.241Y-111.549
X325.041Y-73.500
X362.501Y-131.961
X362.501Y-137.041
X363.700Y-58.961
X363.700Y-64.041
X363.700Y-77.960
X363.700Y-83.040
X363.700Y-96.959
X363.700Y-102.039
X363.700Y-115.961
X363.700Y-121.041
X367.000Y-131.961
X367.000Y-137.041
X371.500Y-131.961
X371.500Y-137.041
X375.999Y-131.961
X375.999Y-137.041
X380.500Y-131.961
X380.500Y-137.041
T4
X331.770Y-112.829
X331.770Y-115.369
X331.770Y-117.909
X331.770Y-120.449
X331.770Y-122.989
X331.770Y-125.529
X331.770Y-128.069
X331.770Y-130.609
X331.770Y-133.149
X331.770Y-135.689
X331.770Y-138.229
X331.770Y-140.769
X336.850Y-140.769
X339.390Y-140.769
X340.660Y-131.879
X340.660Y-134.419
X341.930Y-140.769
X343.200Y-131.879
X343.200Y-134.419
X344.470Y-140.769
X345.740Y-131.879
X345.740Y-134.419
X347.010Y-140.769
X349.550Y-140.769
X354.630Y-112.829
X354.630Y-115.369
X354.630Y-117.909
X354.630Y-120.449
X354.630Y-122.989
X354.630Y-125.529
X354.630Y-128.069
X354.630Y-130.609
X354.630Y-133.149
X354.630Y-135.689
X354.630Y-138.229
X354.630Y-140.769
X385.501Y-108.209
X385.501Y-110.749
X385.501Y-113.289
X385.729Y-71.570
X385.729Y-74.110
X385.729Y-76.650
X385.729Y-79.190
X385.729Y-81.730
X385.729Y-90.170
X385.729Y-92.710
X385.729Y-95.250
X385.729Y-97.790
X385.729Y-100.330
X388.269Y-71.570
X388.269Y-74.110
X388.269Y-76.650
X388.269Y-79.190
X388.269Y-81.730
X388.269Y-90.170
X388.269Y-92.710
X388.269Y-95.250
X388.269Y-97.790
X388.269Y-100.330
T5
X28.890Y-99.510
X28.890Y-118.509
X33.589Y-61.511
X35.240Y-96.970
X35.240Y-115.969
X39.939Y-58.971
X43.091Y-80.510
X47.889Y-99.510
X49.441Y-77.970
X52.591Y-61.511
X54.239Y-96.970
X57.389Y-118.509
X58.941Y-58.971
X62.090Y-80.510
X63.739Y-115.969
X66.891Y-99.510
X68.440Y-77.970
X71.590Y-61.511
X73.241Y-96.970
X76.391Y-118.509
X77.940Y-58.971
X81.090Y-80.510
X82.741Y-115.969
X85.890Y-99.510
X87.440Y-77.970
X90.589Y-61.511
X92.240Y-96.970
X95.390Y-118.509
X96.939Y-58.971
X100.091Y-80.510
X101.740Y-115.969
X104.889Y-99.510
X106.441Y-77.970
X109.591Y-61.511
X111.239Y-96.970
X114.389Y-118.509
X115.941Y-58.971
X119.090Y-80.510
X120.739Y-115.969
X123.891Y-99.510
X125.440Y-77.970
X128.590Y-61.511
X130.241Y-96.970
X133.391Y-118.509
X134.940Y-58.971
X138.090Y-80.510
X139.741Y-115.969
X142.890Y-99.510
X144.440Y-77.970
X147.589Y-61.511
X149.240Y-96.970
X152.390Y-118.509
X153.939Y-58.971
X157.089Y-80.510
X157.290Y-137.511
X158.740Y-115.969
X161.889Y-99.510
X163.439Y-77.970
X163.640Y-134.971
X166.591Y-61.511
X168.239Y-96.970
X171.389Y-118.509
X172.941Y-58.971
X176.091Y-80.510
X177.739Y-115.969
X180.891Y-99.510
X182.441Y-77.970
X185.590Y-61.511
X187.241Y-96.970
X190.391Y-118.509
X191.940Y-58.971
X195.090Y-80.510
X196.741Y-115.969
X199.890Y-99.510
X201.440Y-77.970
X204.589Y-61.511
X206.240Y-96.970
X209.390Y-118.509
X210.939Y-58.971
X214.089Y-80.510
X215.740Y-115.969
X218.890Y-99.510
X220.439Y-77.970
X223.591Y-61.511
X225.240Y-96.970
X228.389Y-118.509
X229.941Y-58.971
X233.091Y-80.510
X234.739Y-115.969
X237.889Y-99.510
X239.441Y-77.970
X242.590Y-61.511
X244.239Y-96.970
X247.388Y-118.509
X248.940Y-58.971
X252.090Y-80.510
X253.738Y-115.969
X256.891Y-99.510
X258.440Y-77.970
X261.590Y-61.511
X263.241Y-96.970
X267.940Y-58.971
X271.089Y-80.510
X275.890Y-99.510
X275.890Y-118.509
X277.439Y-77.970
X280.591Y-61.511
X282.240Y-96.970
X282.240Y-115.969
X286.941Y-58.971
X290.091Y-80.510
X294.889Y-118.509
X296.441Y-77.970
X299.590Y-61.511
X301.239Y-115.969
X304.391Y-99.510
X305.940Y-58.971
X309.090Y-80.510
X310.741Y-96.970
X313.891Y-118.509
X315.440Y-77.970
X318.590Y-61.511
X320.241Y-115.969
X324.940Y-58.971
X369.390Y-61.511
X369.390Y-80.510
X369.390Y-99.510
X369.390Y-118.509
X375.740Y-58.971
X375.740Y-77.970
X375.740Y-96.970
X375.740Y-115.969
T6
X25.700Y-62.019
X25.700Y-142.080
X391.749Y-62.019
X391.749Y-142.080
T7
X32.700Y-102.050
X32.700Y-121.049
X37.399Y-64.051
X46.901Y-83.050
X51.699Y-102.050
X56.401Y-64.051
X61.199Y-121.049
X65.900Y-83.050
X70.701Y-102.050
X75.400Y-64.051
X80.201Y-121.049
X84.900Y-83.050
X89.700Y-102.050
X94.399Y-64.051
X99.200Y-121.049
X103.901Y-83.050
X108.699Y-102.050
X113.401Y-64.051
X118.199Y-121.049
X122.900Y-83.050
X127.701Y-102.050
X132.400Y-64.051
X137.201Y-121.049
X141.900Y-83.050
X146.700Y-102.050
X151.399Y-64.051
X156.200Y-121.049
X160.899Y-83.050
X161.100Y-140.051
X165.699Y-102.050
X170.401Y-64.051
X175.199Y-121.049
X179.901Y-83.050
X184.701Y-102.050
X189.400Y-64.051
X194.201Y-121.049
X198.900Y-83.050
X203.700Y-102.050
X208.399Y-64.051
X213.200Y-121.049
X217.899Y-83.050
X222.700Y-102.050
X227.401Y-64.051
X232.199Y-121.049
X236.901Y-83.050
X241.699Y-102.050
X246.400Y-64.051
X251.198Y-121.049
X255.900Y-83.050
X260.701Y-102.050
X265.400Y-64.051
X274.899Y-83.050
X279.700Y-102.050
X279.700Y-121.049
X284.401Y-64.051
X293.901Y-83.050
X298.699Y-121.049
X303.400Y-64.051
X308.201Y-102.050
X312.900Y-83.050
X317.701Y-121.049
X322.400Y-64.051
X373.200Y-64.051
X373.200Y-83.050
X373.200Y-102.050
X373.200Y-121.049
T0
M30
