G04 (created by PCBNEW-RS274X (2012-01-19 BZR 3256)-stable) date 07/10/2012 23:19:39*
G01*
G70*
G90*
%MOIN*%
G04 Gerber Fmt 3.4, Leading zero omitted, Abs format*
%FSLAX34Y34*%
G04 APERTURE LIST*
%ADD10C,0.006000*%
%ADD11C,0.015000*%
%ADD12C,0.060000*%
%ADD13C,0.055000*%
%ADD14R,0.060000X0.060000*%
%ADD15O,0.075000X0.095000*%
%ADD16R,0.075000X0.085000*%
%ADD17O,0.095000X0.075000*%
%ADD18R,0.085000X0.075000*%
%ADD19C,0.160000*%
%ADD20C,0.105000*%
%ADD21C,0.157000*%
%ADD22C,0.035000*%
%ADD23C,0.019800*%
G04 APERTURE END LIST*
G54D10*
G54D11*
X07874Y-22047D02*
X07874Y-58268D01*
X156693Y-22047D02*
X07874Y-22047D01*
X156693Y-58268D02*
X156693Y-22047D01*
X07874Y-58268D02*
X156693Y-58268D01*
G54D12*
X134118Y-51921D03*
X134118Y-52921D03*
X135118Y-51921D03*
X135118Y-52921D03*
X136118Y-51921D03*
X136118Y-52921D03*
X133618Y-55421D03*
X134618Y-55421D03*
X132618Y-55421D03*
X135618Y-55421D03*
X136618Y-55421D03*
X137618Y-55421D03*
X130618Y-55421D03*
X139618Y-55421D03*
X130618Y-54421D03*
X130618Y-53421D03*
X130618Y-52421D03*
X130618Y-51421D03*
X130618Y-50421D03*
X130618Y-49421D03*
X130618Y-48421D03*
X130618Y-47421D03*
X130618Y-46421D03*
X130618Y-45421D03*
X130618Y-44421D03*
X139618Y-54421D03*
X139618Y-53421D03*
X139618Y-52421D03*
X139618Y-51421D03*
X139618Y-50421D03*
X139618Y-49421D03*
X139618Y-48421D03*
X139618Y-47421D03*
X139618Y-46421D03*
X139618Y-45421D03*
X139618Y-44421D03*
G54D13*
X148508Y-43917D03*
X145508Y-43917D03*
G54D14*
X152862Y-28177D03*
G54D12*
X151862Y-28177D03*
X152862Y-29177D03*
X151862Y-29177D03*
X152862Y-30177D03*
X151862Y-30177D03*
X152862Y-31177D03*
X151862Y-31177D03*
X152862Y-32177D03*
X151862Y-32177D03*
G54D14*
X152862Y-35500D03*
G54D12*
X151862Y-35500D03*
X152862Y-36500D03*
X151862Y-36500D03*
X152862Y-37500D03*
X151862Y-37500D03*
X152862Y-38500D03*
X151862Y-38500D03*
X152862Y-39500D03*
X151862Y-39500D03*
G54D14*
X151772Y-42602D03*
G54D12*
X151772Y-43602D03*
X151772Y-44602D03*
G54D15*
X25945Y-23213D03*
G54D16*
X25945Y-25213D03*
G54D15*
X27835Y-45654D03*
G54D16*
X27835Y-47654D03*
G54D15*
X31575Y-38173D03*
G54D16*
X31575Y-40173D03*
G54D15*
X46535Y-38173D03*
G54D16*
X46535Y-40173D03*
G54D15*
X61496Y-38173D03*
G54D16*
X61496Y-40173D03*
G54D15*
X76457Y-38173D03*
G54D16*
X76457Y-40173D03*
G54D15*
X91417Y-38173D03*
G54D16*
X91417Y-40173D03*
G54D15*
X106378Y-38173D03*
G54D16*
X106378Y-40173D03*
G54D17*
X126079Y-43917D03*
G54D18*
X124079Y-43917D03*
G54D15*
X16614Y-38173D03*
G54D16*
X16614Y-40173D03*
G54D15*
X22205Y-30693D03*
G54D16*
X22205Y-32693D03*
G54D15*
X42795Y-45654D03*
G54D16*
X42795Y-47654D03*
G54D15*
X57756Y-45654D03*
G54D16*
X57756Y-47654D03*
G54D15*
X72717Y-45654D03*
G54D16*
X72717Y-47654D03*
G54D15*
X87677Y-45654D03*
G54D16*
X87677Y-47654D03*
G54D15*
X102638Y-45654D03*
G54D16*
X102638Y-47654D03*
G54D15*
X121339Y-45654D03*
G54D16*
X121339Y-47654D03*
G54D15*
X67165Y-53134D03*
G54D16*
X67165Y-55134D03*
G54D15*
X118307Y-53953D03*
G54D16*
X118307Y-51953D03*
G54D17*
X122327Y-36437D03*
G54D18*
X124327Y-36437D03*
G54D15*
X111969Y-30693D03*
G54D16*
X111969Y-32693D03*
G54D15*
X97008Y-30693D03*
G54D16*
X97008Y-32693D03*
G54D15*
X82047Y-30693D03*
G54D16*
X82047Y-32693D03*
G54D15*
X67087Y-30693D03*
G54D16*
X67087Y-32693D03*
G54D15*
X52126Y-30693D03*
G54D16*
X52126Y-32693D03*
G54D15*
X37165Y-30693D03*
G54D16*
X37165Y-32693D03*
G54D15*
X18465Y-23213D03*
G54D16*
X18465Y-25213D03*
G54D17*
X127969Y-28937D03*
G54D18*
X125969Y-28937D03*
G54D15*
X115709Y-23213D03*
G54D16*
X115709Y-25213D03*
G54D15*
X100748Y-23213D03*
G54D16*
X100748Y-25213D03*
G54D15*
X85787Y-23213D03*
G54D16*
X85787Y-25213D03*
G54D15*
X70827Y-23213D03*
G54D16*
X70827Y-25213D03*
G54D15*
X55866Y-23213D03*
G54D16*
X55866Y-25213D03*
G54D15*
X40906Y-23213D03*
G54D16*
X40906Y-25213D03*
G54D15*
X35315Y-45654D03*
G54D16*
X35315Y-47654D03*
G54D15*
X24094Y-38173D03*
G54D16*
X24094Y-40173D03*
G54D15*
X143189Y-45654D03*
G54D16*
X143189Y-47654D03*
G54D15*
X123189Y-23213D03*
G54D16*
X123189Y-25213D03*
G54D15*
X108228Y-23213D03*
G54D16*
X108228Y-25213D03*
G54D15*
X93268Y-23213D03*
G54D16*
X93268Y-25213D03*
G54D15*
X78307Y-23213D03*
G54D16*
X78307Y-25213D03*
G54D15*
X63346Y-23213D03*
G54D16*
X63346Y-25213D03*
G54D15*
X48386Y-23213D03*
G54D16*
X48386Y-25213D03*
G54D15*
X33425Y-23213D03*
G54D16*
X33425Y-25213D03*
G54D15*
X143189Y-38173D03*
G54D16*
X143189Y-40173D03*
G54D15*
X119449Y-30693D03*
G54D16*
X119449Y-32693D03*
G54D15*
X104488Y-30693D03*
G54D16*
X104488Y-32693D03*
G54D15*
X89528Y-30693D03*
G54D16*
X89528Y-32693D03*
G54D15*
X74567Y-30693D03*
G54D16*
X74567Y-32693D03*
G54D15*
X59606Y-30693D03*
G54D16*
X59606Y-32693D03*
G54D15*
X44646Y-30693D03*
G54D16*
X44646Y-32693D03*
G54D15*
X50276Y-45654D03*
G54D16*
X50276Y-47654D03*
G54D15*
X65236Y-45654D03*
G54D16*
X65236Y-47654D03*
G54D15*
X80197Y-45654D03*
G54D16*
X80197Y-47654D03*
G54D15*
X95157Y-45654D03*
G54D16*
X95157Y-47654D03*
G54D15*
X113858Y-45654D03*
G54D16*
X113858Y-47654D03*
G54D15*
X143189Y-23213D03*
G54D16*
X143189Y-25213D03*
G54D15*
X16594Y-45654D03*
G54D16*
X16594Y-47654D03*
G54D15*
X39055Y-38173D03*
G54D16*
X39055Y-40173D03*
G54D15*
X54016Y-38173D03*
G54D16*
X54016Y-40173D03*
G54D15*
X68976Y-38173D03*
G54D16*
X68976Y-40173D03*
G54D15*
X83937Y-38173D03*
G54D16*
X83937Y-40173D03*
G54D15*
X98898Y-38173D03*
G54D16*
X98898Y-40173D03*
G54D15*
X113858Y-38173D03*
G54D16*
X113858Y-40173D03*
G54D15*
X143189Y-30693D03*
G54D16*
X143189Y-32693D03*
G54D15*
X29685Y-30693D03*
G54D16*
X29685Y-32693D03*
G54D19*
X10118Y-24417D03*
X10118Y-55937D03*
X154232Y-55937D03*
X154232Y-24417D03*
G54D15*
X125394Y-53953D03*
G54D16*
X125394Y-51953D03*
G54D15*
X142717Y-53953D03*
G54D16*
X142717Y-51953D03*
G54D15*
X144488Y-53953D03*
G54D16*
X144488Y-51953D03*
G54D15*
X123622Y-53953D03*
G54D16*
X123622Y-51953D03*
G54D15*
X121850Y-53953D03*
G54D16*
X121850Y-51953D03*
G54D15*
X120079Y-53953D03*
G54D16*
X120079Y-51953D03*
G54D15*
X146260Y-53953D03*
G54D16*
X146260Y-51953D03*
G54D15*
X148031Y-53953D03*
G54D16*
X148031Y-51953D03*
G54D15*
X149803Y-53953D03*
G54D16*
X149803Y-51953D03*
G54D20*
X23205Y-23217D03*
X20705Y-24217D03*
G54D21*
X22205Y-25217D03*
G54D20*
X38165Y-23217D03*
X35665Y-24217D03*
G54D21*
X37165Y-25217D03*
G54D20*
X53126Y-23217D03*
X50626Y-24217D03*
G54D21*
X52126Y-25217D03*
G54D20*
X68087Y-23217D03*
X65587Y-24217D03*
G54D21*
X67087Y-25217D03*
G54D20*
X83047Y-23217D03*
X80547Y-24217D03*
G54D21*
X82047Y-25217D03*
G54D20*
X98008Y-23217D03*
X95508Y-24217D03*
G54D21*
X97008Y-25217D03*
G54D20*
X112969Y-23217D03*
X110469Y-24217D03*
G54D21*
X111969Y-25217D03*
G54D20*
X127929Y-23217D03*
X125429Y-24217D03*
G54D21*
X126929Y-25217D03*
G54D20*
X15724Y-23217D03*
X13224Y-24217D03*
G54D21*
X14724Y-25217D03*
G54D20*
X34425Y-30697D03*
X31925Y-31697D03*
G54D21*
X33425Y-32697D03*
G54D20*
X49386Y-30697D03*
X46886Y-31697D03*
G54D21*
X48386Y-32697D03*
G54D20*
X64346Y-30697D03*
X61846Y-31697D03*
G54D21*
X63346Y-32697D03*
G54D20*
X79307Y-30697D03*
X76807Y-31697D03*
G54D21*
X78307Y-32697D03*
G54D20*
X94268Y-30697D03*
X91768Y-31697D03*
G54D21*
X93268Y-32697D03*
G54D20*
X109228Y-30697D03*
X106728Y-31697D03*
G54D21*
X108228Y-32697D03*
G54D20*
X122339Y-38177D03*
X119839Y-39177D03*
G54D21*
X121339Y-40177D03*
G54D20*
X19465Y-30697D03*
X16965Y-31697D03*
G54D21*
X18465Y-32697D03*
G54D20*
X28835Y-38177D03*
X26335Y-39177D03*
G54D21*
X27835Y-40177D03*
G54D20*
X43795Y-38177D03*
X41295Y-39177D03*
G54D21*
X42795Y-40177D03*
G54D20*
X58756Y-38177D03*
X56256Y-39177D03*
G54D21*
X57756Y-40177D03*
G54D20*
X73717Y-38177D03*
X71217Y-39177D03*
G54D21*
X72717Y-40177D03*
G54D20*
X88677Y-38177D03*
X86177Y-39177D03*
G54D21*
X87677Y-40177D03*
G54D20*
X103638Y-38177D03*
X101138Y-39177D03*
G54D21*
X102638Y-40177D03*
G54D20*
X126079Y-45657D03*
X123579Y-46657D03*
G54D21*
X125079Y-47657D03*
G54D20*
X13874Y-38177D03*
X11374Y-39177D03*
G54D21*
X12874Y-40177D03*
G54D20*
X25094Y-45657D03*
X22594Y-46657D03*
G54D21*
X24094Y-47657D03*
G54D20*
X40055Y-45657D03*
X37555Y-46657D03*
G54D21*
X39055Y-47657D03*
G54D20*
X55016Y-45657D03*
X52516Y-46657D03*
G54D21*
X54016Y-47657D03*
G54D20*
X69976Y-45657D03*
X67476Y-46657D03*
G54D21*
X68976Y-47657D03*
G54D20*
X84937Y-45657D03*
X82437Y-46657D03*
G54D21*
X83937Y-47657D03*
G54D20*
X99897Y-45657D03*
X97397Y-46657D03*
G54D21*
X98897Y-47657D03*
G54D20*
X118598Y-45657D03*
X116098Y-46657D03*
G54D21*
X117598Y-47657D03*
G54D20*
X64425Y-53138D03*
X61925Y-54138D03*
G54D21*
X63425Y-55138D03*
G54D20*
X32575Y-45657D03*
X30075Y-46657D03*
G54D21*
X31575Y-47657D03*
G54D20*
X47535Y-45657D03*
X45035Y-46657D03*
G54D21*
X46535Y-47657D03*
G54D20*
X62496Y-45657D03*
X59996Y-46657D03*
G54D21*
X61496Y-47657D03*
G54D20*
X77457Y-45657D03*
X74957Y-46657D03*
G54D21*
X76457Y-47657D03*
G54D20*
X92417Y-45657D03*
X89917Y-46657D03*
G54D21*
X91417Y-47657D03*
G54D20*
X111118Y-45657D03*
X108618Y-46657D03*
G54D21*
X110118Y-47657D03*
G54D20*
X147929Y-23217D03*
X145429Y-24217D03*
G54D21*
X146929Y-25217D03*
G54D20*
X13874Y-45657D03*
X11374Y-46657D03*
G54D21*
X12874Y-47657D03*
G54D20*
X36315Y-38177D03*
X33815Y-39177D03*
G54D21*
X35315Y-40177D03*
G54D20*
X51276Y-38177D03*
X48776Y-39177D03*
G54D21*
X50276Y-40177D03*
G54D20*
X66236Y-38177D03*
X63736Y-39177D03*
G54D21*
X65236Y-40177D03*
G54D20*
X81197Y-38177D03*
X78697Y-39177D03*
G54D21*
X80197Y-40177D03*
G54D20*
X96157Y-38177D03*
X93657Y-39177D03*
G54D21*
X95157Y-40177D03*
G54D20*
X111118Y-38177D03*
X108618Y-39177D03*
G54D21*
X110118Y-40177D03*
G54D20*
X147929Y-30697D03*
X145429Y-31697D03*
G54D21*
X146929Y-32697D03*
G54D20*
X26945Y-30697D03*
X24445Y-31697D03*
G54D21*
X25945Y-32697D03*
G54D20*
X41906Y-30697D03*
X39406Y-31697D03*
G54D21*
X40906Y-32697D03*
G54D20*
X56866Y-30697D03*
X54366Y-31697D03*
G54D21*
X55866Y-32697D03*
G54D20*
X71827Y-30697D03*
X69327Y-31697D03*
G54D21*
X70827Y-32697D03*
G54D20*
X86787Y-30697D03*
X84287Y-31697D03*
G54D21*
X85787Y-32697D03*
G54D20*
X101748Y-30697D03*
X99248Y-31697D03*
G54D21*
X100748Y-32697D03*
G54D20*
X116709Y-30697D03*
X114209Y-31697D03*
G54D21*
X115709Y-32697D03*
G54D20*
X147929Y-38177D03*
X145429Y-39177D03*
G54D21*
X146929Y-40177D03*
G54D20*
X30685Y-23217D03*
X28185Y-24217D03*
G54D21*
X29685Y-25217D03*
G54D20*
X45646Y-23217D03*
X43146Y-24217D03*
G54D21*
X44646Y-25217D03*
G54D20*
X60606Y-23217D03*
X58106Y-24217D03*
G54D21*
X59606Y-25217D03*
G54D20*
X75567Y-23217D03*
X73067Y-24217D03*
G54D21*
X74567Y-25217D03*
G54D20*
X90528Y-23217D03*
X88028Y-24217D03*
G54D21*
X89528Y-25217D03*
G54D20*
X105488Y-23217D03*
X102988Y-24217D03*
G54D21*
X104488Y-25217D03*
G54D20*
X120449Y-23217D03*
X117949Y-24217D03*
G54D21*
X119449Y-25217D03*
G54D20*
X147929Y-45657D03*
X145429Y-46657D03*
G54D21*
X146929Y-47657D03*
G54D20*
X21354Y-38177D03*
X18854Y-39177D03*
G54D21*
X20354Y-40177D03*
G54D20*
X124189Y-30697D03*
X121689Y-31697D03*
G54D21*
X123189Y-32697D03*
G54D22*
X129564Y-54741D03*
X111609Y-44009D03*
X120479Y-57361D03*
X138186Y-45698D03*
X138552Y-47943D03*
X117591Y-55759D03*
X121193Y-34521D03*
X128219Y-49576D03*
X128742Y-49905D03*
X129218Y-49261D03*
G54D23*
X65671Y-24133D02*
X65587Y-24217D01*
X71187Y-24133D02*
X65671Y-24133D01*
X72055Y-23265D02*
X71187Y-24133D01*
X110553Y-24133D02*
X110469Y-24217D01*
X110385Y-24133D02*
X104298Y-24133D01*
X110469Y-24217D02*
X110385Y-24133D01*
X101976Y-23265D02*
X101108Y-24133D01*
X104298Y-24133D02*
X103430Y-23265D01*
X103430Y-23265D02*
X101976Y-23265D01*
X95592Y-24133D02*
X95508Y-24217D01*
X101108Y-24133D02*
X95592Y-24133D01*
X125429Y-24217D02*
X125345Y-24133D01*
X125345Y-24133D02*
X119259Y-24133D01*
X119259Y-24133D02*
X118391Y-23265D01*
X118391Y-23265D02*
X116937Y-23265D01*
X116937Y-23265D02*
X116069Y-24133D01*
X116069Y-24133D02*
X110553Y-24133D01*
X88469Y-23265D02*
X87015Y-23265D01*
X89337Y-24133D02*
X88469Y-23265D01*
X95424Y-24133D02*
X89337Y-24133D01*
X95508Y-24217D02*
X95424Y-24133D01*
X139942Y-56728D02*
X142717Y-53953D01*
X138925Y-56728D02*
X139942Y-56728D01*
X137618Y-55421D02*
X138925Y-56728D01*
X74377Y-24133D02*
X73509Y-23265D01*
X80463Y-24133D02*
X74377Y-24133D01*
X80547Y-24217D02*
X80463Y-24133D01*
X50710Y-24133D02*
X50626Y-24217D01*
X56226Y-24133D02*
X50710Y-24133D01*
X57094Y-23265D02*
X56226Y-24133D01*
X58550Y-23265D02*
X57094Y-23265D01*
X59418Y-24133D02*
X58550Y-23265D01*
X65503Y-24133D02*
X59418Y-24133D01*
X65587Y-24217D02*
X65503Y-24133D01*
X80631Y-24133D02*
X80547Y-24217D01*
X73509Y-23265D02*
X72055Y-23265D01*
X86147Y-24133D02*
X80631Y-24133D01*
X87015Y-23265D02*
X86147Y-24133D01*
X124295Y-53953D02*
X125083Y-54741D01*
X91800Y-33781D02*
X105681Y-33781D01*
X114490Y-33828D02*
X107822Y-33828D01*
X91768Y-31697D02*
X91768Y-33749D01*
X119839Y-39177D02*
X114490Y-33828D01*
X123622Y-53953D02*
X124295Y-53953D01*
X91768Y-33749D02*
X91800Y-33781D01*
X107822Y-33828D02*
X106728Y-32734D01*
X106728Y-32734D02*
X106728Y-31697D01*
X105681Y-33781D02*
X106728Y-32734D01*
X125083Y-54741D02*
X129564Y-54741D01*
X41720Y-38752D02*
X41295Y-39177D01*
X46055Y-41602D02*
X43205Y-38752D01*
X135118Y-47453D02*
X135118Y-51921D01*
X53831Y-41602D02*
X46055Y-41602D01*
X34905Y-39093D02*
X34092Y-38280D01*
X41295Y-39177D02*
X41211Y-39093D01*
X79787Y-39093D02*
X78974Y-38280D01*
X31935Y-39093D02*
X26419Y-39093D01*
X86177Y-39177D02*
X86093Y-39093D01*
X126550Y-46573D02*
X129761Y-43362D01*
X123579Y-46657D02*
X120931Y-44009D01*
X120931Y-44009D02*
X111609Y-44009D01*
X123579Y-46657D02*
X123663Y-46573D01*
X123663Y-46573D02*
X126550Y-46573D01*
X78974Y-38280D02*
X77630Y-38280D01*
X131027Y-43362D02*
X135118Y-47453D01*
X26419Y-39093D02*
X26335Y-39177D01*
X129761Y-43362D02*
X131027Y-43362D01*
X32748Y-38280D02*
X31935Y-39093D01*
X34092Y-38280D02*
X32748Y-38280D01*
X86093Y-39093D02*
X79787Y-39093D01*
X41211Y-39093D02*
X34905Y-39093D01*
X43205Y-38752D02*
X41720Y-38752D01*
X56256Y-39177D02*
X53831Y-41602D01*
X86261Y-39093D02*
X86177Y-39177D01*
X91777Y-39093D02*
X86261Y-39093D01*
X92590Y-38280D02*
X91777Y-39093D01*
X93934Y-38280D02*
X92590Y-38280D01*
X94747Y-39093D02*
X93934Y-38280D01*
X101054Y-39093D02*
X94747Y-39093D01*
X101138Y-39177D02*
X101054Y-39093D01*
X71301Y-39093D02*
X71217Y-39177D01*
X76817Y-39093D02*
X71301Y-39093D01*
X77630Y-38280D02*
X76817Y-39093D01*
X126164Y-47699D02*
X126164Y-48737D01*
X126164Y-48737D02*
X126143Y-48758D01*
X126143Y-48758D02*
X124035Y-48758D01*
X124035Y-48758D02*
X121850Y-46573D01*
X121850Y-46573D02*
X116182Y-46573D01*
X116182Y-46573D02*
X116098Y-46657D01*
X67518Y-46573D02*
X67476Y-46615D01*
X67476Y-46615D02*
X62289Y-46615D01*
X62289Y-46615D02*
X61273Y-45599D01*
X61273Y-45599D02*
X59091Y-45599D01*
X59091Y-45599D02*
X58209Y-46481D01*
X58209Y-46481D02*
X52692Y-46481D01*
X73078Y-46573D02*
X67518Y-46573D01*
X131315Y-44241D02*
X130834Y-43760D01*
X130834Y-43760D02*
X130103Y-43760D01*
X52692Y-46481D02*
X52516Y-46657D01*
X130103Y-43760D02*
X126164Y-47699D01*
X114274Y-44833D02*
X99221Y-44833D01*
X116098Y-46657D02*
X114274Y-44833D01*
X67476Y-46615D02*
X67476Y-46657D01*
X74052Y-45599D02*
X73078Y-46573D01*
X133576Y-53520D02*
X131315Y-51259D01*
X31158Y-45833D02*
X28936Y-45833D01*
X28936Y-45833D02*
X28196Y-46573D01*
X28196Y-46573D02*
X22678Y-46573D01*
X22678Y-46573D02*
X22594Y-46657D01*
X52516Y-46657D02*
X47370Y-46657D01*
X47370Y-46657D02*
X46312Y-45599D01*
X82437Y-46615D02*
X82437Y-46657D01*
X44130Y-45599D02*
X43156Y-46573D01*
X135519Y-53520D02*
X133576Y-53520D01*
X37639Y-46573D02*
X37555Y-46657D01*
X46312Y-45599D02*
X44130Y-45599D01*
X131315Y-51259D02*
X131315Y-44241D01*
X136118Y-52921D02*
X135519Y-53520D01*
X82437Y-46615D02*
X77250Y-46615D01*
X31898Y-46573D02*
X31158Y-45833D01*
X43156Y-46573D02*
X37639Y-46573D01*
X77250Y-46615D02*
X76234Y-45599D01*
X76234Y-45599D02*
X74052Y-45599D01*
X82479Y-46573D02*
X82437Y-46615D01*
X37555Y-46657D02*
X37471Y-46573D01*
X37471Y-46573D02*
X31898Y-46573D01*
X99221Y-44833D02*
X97397Y-46657D01*
X97397Y-46657D02*
X92252Y-46657D01*
X92252Y-46657D02*
X91194Y-45599D01*
X91194Y-45599D02*
X89012Y-45599D01*
X89012Y-45599D02*
X88038Y-46573D01*
X88038Y-46573D02*
X82479Y-46573D01*
X120079Y-53953D02*
X119406Y-53953D01*
X89917Y-47726D02*
X89917Y-46657D01*
X91396Y-49205D02*
X89917Y-47726D01*
X106070Y-49205D02*
X91396Y-49205D01*
X108618Y-46657D02*
X106070Y-49205D01*
X119406Y-53953D02*
X118239Y-52786D01*
X118239Y-52786D02*
X117082Y-52786D01*
X117082Y-52786D02*
X110528Y-46232D01*
X110528Y-46232D02*
X109043Y-46232D01*
X109043Y-46232D02*
X108618Y-46657D01*
X145957Y-57126D02*
X149130Y-53953D01*
X138323Y-57126D02*
X145957Y-57126D01*
X136618Y-55421D02*
X138323Y-57126D01*
X149803Y-53953D02*
X149130Y-53953D01*
X63736Y-39177D02*
X63736Y-39011D01*
X105919Y-39177D02*
X103835Y-41261D01*
X77693Y-41264D02*
X67925Y-41264D01*
X28435Y-44557D02*
X22525Y-44557D01*
X63736Y-39011D02*
X57264Y-39011D01*
X92680Y-41261D02*
X79698Y-41261D01*
X48860Y-39093D02*
X48776Y-39177D01*
X22525Y-44557D02*
X18704Y-48378D01*
X135507Y-57361D02*
X120479Y-57361D01*
X33815Y-39177D02*
X28435Y-44557D01*
X154094Y-35482D02*
X150133Y-31521D01*
X65672Y-39011D02*
X63736Y-39011D01*
X18704Y-48378D02*
X15430Y-48378D01*
X135618Y-55421D02*
X135618Y-57250D01*
X55189Y-38280D02*
X54376Y-39093D01*
X93657Y-40284D02*
X92680Y-41261D01*
X13284Y-46232D02*
X11799Y-46232D01*
X150133Y-31521D02*
X145605Y-31521D01*
X56533Y-38280D02*
X55189Y-38280D01*
X136224Y-57856D02*
X147108Y-57856D01*
X145605Y-31521D02*
X145429Y-31697D01*
X94634Y-41261D02*
X93657Y-40284D01*
X15430Y-48378D02*
X13284Y-46232D01*
X103835Y-41261D02*
X94634Y-41261D01*
X147108Y-57856D02*
X154094Y-50870D01*
X108618Y-39177D02*
X105919Y-39177D01*
X57264Y-39011D02*
X56533Y-38280D01*
X93657Y-40284D02*
X93657Y-39177D01*
X135618Y-57250D02*
X135507Y-57361D01*
X67925Y-41264D02*
X65672Y-39011D01*
X11799Y-46232D02*
X11374Y-46657D01*
X135618Y-57250D02*
X136224Y-57856D01*
X78697Y-40260D02*
X77693Y-41264D01*
X79698Y-41261D02*
X78697Y-40260D01*
X54376Y-39093D02*
X48860Y-39093D01*
X78697Y-40260D02*
X78697Y-39177D01*
X154094Y-50870D02*
X154094Y-35482D01*
X75901Y-30639D02*
X74931Y-31609D01*
X78084Y-30639D02*
X75901Y-30639D01*
X79100Y-31655D02*
X78084Y-30639D01*
X84287Y-31655D02*
X79100Y-31655D01*
X108114Y-31609D02*
X107230Y-30725D01*
X99424Y-31521D02*
X99248Y-31697D01*
X104940Y-31521D02*
X99424Y-31521D01*
X105736Y-30725D02*
X104940Y-31521D01*
X107230Y-30725D02*
X105736Y-30725D01*
X63232Y-31609D02*
X62348Y-30725D01*
X74931Y-31609D02*
X69327Y-31609D01*
X137919Y-45431D02*
X138186Y-45698D01*
X137919Y-43835D02*
X137919Y-45431D01*
X114209Y-31609D02*
X108114Y-31609D01*
X141078Y-43528D02*
X145429Y-39177D01*
X138226Y-43528D02*
X141078Y-43528D01*
X137919Y-43835D02*
X138226Y-43528D01*
X129078Y-34994D02*
X137919Y-43835D01*
X120495Y-34994D02*
X129078Y-34994D01*
X117110Y-31609D02*
X120495Y-34994D01*
X114209Y-31609D02*
X117110Y-31609D01*
X84287Y-31697D02*
X84287Y-31655D01*
X69327Y-31609D02*
X63232Y-31609D01*
X69327Y-31609D02*
X69327Y-31697D01*
X54450Y-31613D02*
X54366Y-31697D01*
X59966Y-31613D02*
X54450Y-31613D01*
X60854Y-30725D02*
X59966Y-31613D01*
X62348Y-30725D02*
X60854Y-30725D01*
X114209Y-31609D02*
X114209Y-31697D01*
X92981Y-30726D02*
X90775Y-30726D01*
X93952Y-31697D02*
X92981Y-30726D01*
X99248Y-31697D02*
X93952Y-31697D01*
X24529Y-31613D02*
X24445Y-31697D01*
X30045Y-31613D02*
X24529Y-31613D01*
X31013Y-30645D02*
X30045Y-31613D01*
X33184Y-30645D02*
X31013Y-30645D01*
X34236Y-31697D02*
X33184Y-30645D01*
X39406Y-31697D02*
X34236Y-31697D01*
X84329Y-31613D02*
X84287Y-31655D01*
X89888Y-31613D02*
X84329Y-31613D01*
X90775Y-30726D02*
X89888Y-31613D01*
X139941Y-56056D02*
X141824Y-54173D01*
X139349Y-56056D02*
X139941Y-56056D01*
X141824Y-54173D02*
X141824Y-50262D01*
X134219Y-54820D02*
X138113Y-54820D01*
X133618Y-55421D02*
X134219Y-54820D01*
X138113Y-54820D02*
X139349Y-56056D01*
X141824Y-50262D02*
X145429Y-46657D01*
X33785Y-24133D02*
X28269Y-24133D01*
X43146Y-24217D02*
X43062Y-24133D01*
X43062Y-24133D02*
X36975Y-24133D01*
X36975Y-24133D02*
X36107Y-23265D01*
X36107Y-23265D02*
X34653Y-23265D01*
X34653Y-23265D02*
X33785Y-24133D01*
X28269Y-24133D02*
X28185Y-24217D01*
X131364Y-54962D02*
X131364Y-55523D01*
X67165Y-55134D02*
X67838Y-55134D01*
X16594Y-47654D02*
X17267Y-47654D01*
X16614Y-40173D02*
X16614Y-40896D01*
X17287Y-36938D02*
X17287Y-40173D01*
X21532Y-32693D02*
X17287Y-36938D01*
X130587Y-56300D02*
X69004Y-56300D01*
X17267Y-47654D02*
X17267Y-41549D01*
X138017Y-54022D02*
X132304Y-54022D01*
X16614Y-40173D02*
X17287Y-40173D01*
X139618Y-52421D02*
X138017Y-54022D01*
X17267Y-41549D02*
X16614Y-40896D01*
X22205Y-32693D02*
X21532Y-32693D01*
X69004Y-56300D02*
X67838Y-55134D01*
X131364Y-55523D02*
X130587Y-56300D01*
X132304Y-54022D02*
X131364Y-54962D01*
X47713Y-25213D02*
X45345Y-27581D01*
X35315Y-47654D02*
X35988Y-47654D01*
X43947Y-27581D02*
X41579Y-25213D01*
X45345Y-27581D02*
X43947Y-27581D01*
X131450Y-56854D02*
X45188Y-56854D01*
X131806Y-56498D02*
X131450Y-56854D01*
X45188Y-56854D02*
X35988Y-47654D01*
X131806Y-55361D02*
X131806Y-56498D01*
X45345Y-31757D02*
X45345Y-27581D01*
X132744Y-54423D02*
X131806Y-55361D01*
X138616Y-54423D02*
X132744Y-54423D01*
X139618Y-53421D02*
X138616Y-54423D01*
X40906Y-25213D02*
X41579Y-25213D01*
X44409Y-32693D02*
X45345Y-31757D01*
X48386Y-25213D02*
X47713Y-25213D01*
X42736Y-33930D02*
X43973Y-32693D01*
X39075Y-33930D02*
X42736Y-33930D01*
X37838Y-32693D02*
X39075Y-33930D01*
X37165Y-32693D02*
X37838Y-32693D01*
X44646Y-32693D02*
X44409Y-32693D01*
X44409Y-32693D02*
X43973Y-32693D01*
X60818Y-27068D02*
X62673Y-25213D01*
X52799Y-32693D02*
X52799Y-31267D01*
X52799Y-31267D02*
X56998Y-27068D01*
X55866Y-25213D02*
X55866Y-25936D01*
X132531Y-41922D02*
X121415Y-41922D01*
X138552Y-47943D02*
X132531Y-41922D01*
X62845Y-35259D02*
X60279Y-32693D01*
X114752Y-35259D02*
X62845Y-35259D01*
X56998Y-27068D02*
X60818Y-27068D01*
X121415Y-41922D02*
X114752Y-35259D01*
X59606Y-32693D02*
X60279Y-32693D01*
X56998Y-27068D02*
X55866Y-25936D01*
X63346Y-25213D02*
X62673Y-25213D01*
X44721Y-48907D02*
X43468Y-47654D01*
X48350Y-48907D02*
X44721Y-48907D01*
X52126Y-32693D02*
X52799Y-32693D01*
X42795Y-47654D02*
X43468Y-47654D01*
X50276Y-47654D02*
X49603Y-47654D01*
X49603Y-47654D02*
X48350Y-48907D01*
X68975Y-33908D02*
X72679Y-33908D01*
X67760Y-32693D02*
X68975Y-33908D01*
X67087Y-32693D02*
X67760Y-32693D01*
X74567Y-32693D02*
X73894Y-32693D01*
X72679Y-33908D02*
X73894Y-32693D01*
X79861Y-47654D02*
X79524Y-47654D01*
X80197Y-47654D02*
X80870Y-47654D01*
X79861Y-47654D02*
X80197Y-47654D01*
X82720Y-32693D02*
X84133Y-34106D01*
X129820Y-55219D02*
X88435Y-55219D01*
X88435Y-55219D02*
X80870Y-47654D01*
X130618Y-54421D02*
X129820Y-55219D01*
X89528Y-32693D02*
X88855Y-32693D01*
X84133Y-34106D02*
X87442Y-34106D01*
X82047Y-32693D02*
X82720Y-32693D01*
X87442Y-34106D02*
X88855Y-32693D01*
X78349Y-48829D02*
X74565Y-48829D01*
X72717Y-47654D02*
X73390Y-47654D01*
X79524Y-47654D02*
X78349Y-48829D01*
X74565Y-48829D02*
X73390Y-47654D01*
X130618Y-55421D02*
X130280Y-55759D01*
X130280Y-55759D02*
X117591Y-55759D01*
X129957Y-49265D02*
X129398Y-48706D01*
X129957Y-50760D02*
X129957Y-49265D01*
X130618Y-51421D02*
X129957Y-50760D01*
X129398Y-48706D02*
X126877Y-48706D01*
X126877Y-48706D02*
X126314Y-49269D01*
X126314Y-49269D02*
X116146Y-49269D01*
X116146Y-49269D02*
X114531Y-47654D01*
X113858Y-47654D02*
X114531Y-47654D01*
X108291Y-41413D02*
X107051Y-40173D01*
X111945Y-41413D02*
X108291Y-41413D01*
X113185Y-40173D02*
X111945Y-41413D01*
X113858Y-40173D02*
X113185Y-40173D01*
X106378Y-40173D02*
X107051Y-40173D01*
X151371Y-43201D02*
X151772Y-43602D01*
X143838Y-43201D02*
X151371Y-43201D01*
X139618Y-47421D02*
X143838Y-43201D01*
X143862Y-32693D02*
X143862Y-40173D01*
X143189Y-32693D02*
X143862Y-32693D01*
X143189Y-40173D02*
X143862Y-40173D01*
X116713Y-30693D02*
X116709Y-30697D01*
X119449Y-30693D02*
X116713Y-30693D01*
X147925Y-23213D02*
X147929Y-23217D01*
X143189Y-23213D02*
X147925Y-23213D01*
X118601Y-45654D02*
X118598Y-45657D01*
X121339Y-45654D02*
X118601Y-45654D01*
X120453Y-23213D02*
X120449Y-23217D01*
X123189Y-23213D02*
X120453Y-23213D01*
X113858Y-38173D02*
X113185Y-38173D01*
X111122Y-38173D02*
X111118Y-38177D01*
X113185Y-38173D02*
X111122Y-38173D01*
X111121Y-45654D02*
X111118Y-45657D01*
X113858Y-45654D02*
X111121Y-45654D01*
X99900Y-45654D02*
X99897Y-45657D01*
X102638Y-45654D02*
X99900Y-45654D01*
X106378Y-38173D02*
X103642Y-38173D01*
X103642Y-38173D02*
X103638Y-38177D01*
X147925Y-30693D02*
X147929Y-30697D01*
X143189Y-30693D02*
X147925Y-30693D01*
X147926Y-45654D02*
X147929Y-45657D01*
X143189Y-45654D02*
X147926Y-45654D01*
X64429Y-53134D02*
X64425Y-53138D01*
X67165Y-53134D02*
X64429Y-53134D01*
X26949Y-30693D02*
X26945Y-30697D01*
X29685Y-30693D02*
X26949Y-30693D01*
X30689Y-23213D02*
X30685Y-23217D01*
X33425Y-23213D02*
X30689Y-23213D01*
X31575Y-38173D02*
X28839Y-38173D01*
X28839Y-38173D02*
X28835Y-38177D01*
X86791Y-30693D02*
X86787Y-30697D01*
X89528Y-30693D02*
X86791Y-30693D01*
X66240Y-38173D02*
X66236Y-38177D01*
X68976Y-38173D02*
X66240Y-38173D01*
X71831Y-30693D02*
X71827Y-30697D01*
X74567Y-30693D02*
X71831Y-30693D01*
X75571Y-23213D02*
X75567Y-23217D01*
X78307Y-23213D02*
X75571Y-23213D01*
X73721Y-38173D02*
X73717Y-38177D01*
X76457Y-38173D02*
X73721Y-38173D01*
X69979Y-45654D02*
X69976Y-45657D01*
X72717Y-45654D02*
X69979Y-45654D01*
X77460Y-45654D02*
X77457Y-45657D01*
X80197Y-45654D02*
X77460Y-45654D01*
X83937Y-38173D02*
X81201Y-38173D01*
X81201Y-38173D02*
X81197Y-38177D01*
X90532Y-23213D02*
X90528Y-23217D01*
X93268Y-23213D02*
X90532Y-23213D01*
X88681Y-38173D02*
X88677Y-38177D01*
X91417Y-38173D02*
X88681Y-38173D01*
X84940Y-45654D02*
X84937Y-45657D01*
X87677Y-45654D02*
X84940Y-45654D01*
X92420Y-45654D02*
X92417Y-45657D01*
X95157Y-45654D02*
X92420Y-45654D01*
X96161Y-38173D02*
X96157Y-38177D01*
X98898Y-38173D02*
X96161Y-38173D01*
X101752Y-30693D02*
X101748Y-30697D01*
X104488Y-30693D02*
X101752Y-30693D01*
X105492Y-23213D02*
X105488Y-23217D01*
X108228Y-23213D02*
X105492Y-23213D01*
X25097Y-45654D02*
X25094Y-45657D01*
X28552Y-45654D02*
X31242Y-42964D01*
X31242Y-42964D02*
X132088Y-42964D01*
X27835Y-45654D02*
X28552Y-45654D01*
X27835Y-45654D02*
X25097Y-45654D01*
X138545Y-49421D02*
X139618Y-49421D01*
X132088Y-42964D02*
X138545Y-49421D01*
X32578Y-45654D02*
X32575Y-45657D01*
X35315Y-45654D02*
X32578Y-45654D01*
X36319Y-38173D02*
X36315Y-38177D01*
X39055Y-38173D02*
X36319Y-38173D01*
X41910Y-30693D02*
X41906Y-30697D01*
X44646Y-30693D02*
X41910Y-30693D01*
X45650Y-23213D02*
X45646Y-23217D01*
X48386Y-23213D02*
X45650Y-23213D01*
X40058Y-45654D02*
X40055Y-45657D01*
X42795Y-45654D02*
X40058Y-45654D01*
X47538Y-45654D02*
X47535Y-45657D01*
X50276Y-45654D02*
X47538Y-45654D01*
X62499Y-45654D02*
X62496Y-45657D01*
X65236Y-45654D02*
X62499Y-45654D01*
X51280Y-38173D02*
X51276Y-38177D01*
X54016Y-38173D02*
X51280Y-38173D01*
X56870Y-30693D02*
X56866Y-30697D01*
X59606Y-30693D02*
X56870Y-30693D01*
X60610Y-23213D02*
X60606Y-23217D01*
X63346Y-23213D02*
X60610Y-23213D01*
X58760Y-38173D02*
X58756Y-38177D01*
X61496Y-38173D02*
X58760Y-38173D01*
X55019Y-45654D02*
X55016Y-45657D01*
X57756Y-45654D02*
X55019Y-45654D01*
X94272Y-30693D02*
X94268Y-30697D01*
X97008Y-30693D02*
X94272Y-30693D01*
X79311Y-30693D02*
X79307Y-30697D01*
X82047Y-30693D02*
X79311Y-30693D01*
X64350Y-30693D02*
X64346Y-30697D01*
X67087Y-30693D02*
X64350Y-30693D01*
X49390Y-30693D02*
X49386Y-30697D01*
X52126Y-30693D02*
X49390Y-30693D01*
X109232Y-30693D02*
X109228Y-30697D01*
X111969Y-30693D02*
X109232Y-30693D01*
X15728Y-23213D02*
X15724Y-23217D01*
X18465Y-23213D02*
X15728Y-23213D01*
X23209Y-23213D02*
X23205Y-23217D01*
X25945Y-23213D02*
X23209Y-23213D01*
X38169Y-23213D02*
X38165Y-23217D01*
X40906Y-23213D02*
X38169Y-23213D01*
X53130Y-23213D02*
X53126Y-23217D01*
X55866Y-23213D02*
X53130Y-23213D01*
X68091Y-23213D02*
X68087Y-23217D01*
X70827Y-23213D02*
X68091Y-23213D01*
X83051Y-23213D02*
X83047Y-23217D01*
X85787Y-23213D02*
X83051Y-23213D01*
X34429Y-30693D02*
X34425Y-30697D01*
X37165Y-30693D02*
X34429Y-30693D01*
X98012Y-23213D02*
X98008Y-23217D01*
X100748Y-23213D02*
X98012Y-23213D01*
X115709Y-23213D02*
X112973Y-23213D01*
X112973Y-23213D02*
X112969Y-23217D01*
X19469Y-30693D02*
X19465Y-30697D01*
X22205Y-30693D02*
X19469Y-30693D01*
X13878Y-38173D02*
X13874Y-38177D01*
X16614Y-38173D02*
X13878Y-38173D01*
X150555Y-45886D02*
X151610Y-45886D01*
X145161Y-51953D02*
X145161Y-51280D01*
X145161Y-51280D02*
X150555Y-45886D01*
X144488Y-51953D02*
X145161Y-51953D01*
X153468Y-44028D02*
X153468Y-37106D01*
X151610Y-45886D02*
X153468Y-44028D01*
X153468Y-37106D02*
X152862Y-36500D01*
X115702Y-37245D02*
X121024Y-42567D01*
X24767Y-38173D02*
X25695Y-37245D01*
X25695Y-37245D02*
X115702Y-37245D01*
X121024Y-42567D02*
X132252Y-42567D01*
X132252Y-42567D02*
X138106Y-48421D01*
X138106Y-48421D02*
X139618Y-48421D01*
X24094Y-38173D02*
X24767Y-38173D01*
X24094Y-38173D02*
X21358Y-38173D01*
X21358Y-38173D02*
X21354Y-38177D01*
X145112Y-27578D02*
X152263Y-27578D01*
X121193Y-34521D02*
X138169Y-34521D01*
X138169Y-34521D02*
X145112Y-27578D01*
X152263Y-27578D02*
X152862Y-28177D01*
X124703Y-50872D02*
X126923Y-50872D01*
X124295Y-51280D02*
X124703Y-50872D01*
X126923Y-50872D02*
X128219Y-49576D01*
X124295Y-51953D02*
X124295Y-51280D01*
X123622Y-51953D02*
X124295Y-51953D01*
X122574Y-52677D02*
X125970Y-52677D01*
X122523Y-52626D02*
X122574Y-52677D01*
X121850Y-51953D02*
X122523Y-51953D01*
X122523Y-51953D02*
X122523Y-52626D01*
X125970Y-52677D02*
X128742Y-49905D01*
X120079Y-51953D02*
X120752Y-51953D01*
X120752Y-51280D02*
X122197Y-49835D01*
X120752Y-51953D02*
X120752Y-51280D01*
X129060Y-49103D02*
X129218Y-49261D01*
X127452Y-49103D02*
X129060Y-49103D01*
X126720Y-49835D02*
X127452Y-49103D01*
X122197Y-49835D02*
X126720Y-49835D01*
X149193Y-44602D02*
X148508Y-43917D01*
X151772Y-44602D02*
X149193Y-44602D01*
M02*
