G04 (created by PCBNEW-RS274X (2012-01-19 BZR 3256)-stable) date 07/10/2012 22:08:04*
G01*
G70*
G90*
%MOIN*%
G04 Gerber Fmt 3.4, Leading zero omitted, Abs format*
%FSLAX34Y34*%
G04 APERTURE LIST*
%ADD10C,0.006000*%
%ADD11C,0.015000*%
%ADD12C,0.160000*%
%ADD13R,0.060000X0.060000*%
%ADD14C,0.060000*%
%ADD15C,0.035000*%
%ADD16C,0.019800*%
G04 APERTURE END LIST*
G54D10*
G54D11*
X86000Y-40000D02*
X76000Y-40000D01*
X86000Y-55500D02*
X86000Y-40000D01*
X76000Y-55500D02*
X86000Y-55500D01*
X76000Y-40000D02*
X76000Y-55500D01*
G54D12*
X83500Y-53500D03*
X78500Y-53500D03*
G54D13*
X83000Y-47500D03*
G54D14*
X83000Y-46500D03*
X82000Y-47500D03*
X82000Y-46500D03*
X81000Y-47500D03*
X81000Y-46500D03*
X80000Y-47500D03*
X80000Y-46500D03*
X79000Y-47500D03*
X79000Y-46500D03*
G54D13*
X83000Y-50000D03*
G54D14*
X83000Y-49000D03*
X82000Y-50000D03*
X82000Y-49000D03*
X81000Y-50000D03*
X81000Y-49000D03*
X80000Y-50000D03*
X80000Y-49000D03*
X79000Y-50000D03*
X79000Y-49000D03*
G54D13*
X80000Y-43000D03*
G54D14*
X80000Y-44000D03*
X81000Y-43000D03*
X81000Y-44000D03*
X82000Y-43000D03*
X82000Y-44000D03*
G54D13*
X76500Y-45500D03*
G54D14*
X76500Y-44500D03*
X76500Y-43500D03*
X76500Y-42500D03*
X76500Y-41500D03*
X76500Y-40500D03*
G54D13*
X83500Y-40500D03*
G54D14*
X82500Y-40500D03*
X81500Y-40500D03*
X80500Y-40500D03*
X79500Y-40500D03*
X78500Y-40500D03*
G54D13*
X85500Y-40500D03*
G54D14*
X85500Y-41500D03*
X85500Y-42500D03*
X85500Y-43500D03*
X85500Y-44500D03*
X85500Y-45500D03*
G54D15*
X77569Y-47484D03*
G54D16*
X81000Y-44000D02*
X81000Y-44500D01*
X81000Y-44500D02*
X83000Y-46500D01*
X83000Y-50000D02*
X84685Y-48315D01*
X84685Y-44315D02*
X85500Y-43500D01*
X84685Y-48315D02*
X84685Y-44315D01*
X84204Y-43796D02*
X85500Y-42500D01*
X84204Y-48247D02*
X84204Y-43796D01*
X83451Y-49000D02*
X84204Y-48247D01*
X83000Y-49000D02*
X83451Y-49000D01*
X77374Y-41374D02*
X76500Y-40500D01*
X77374Y-46731D02*
X77374Y-41374D01*
X77375Y-46731D02*
X77374Y-46731D01*
X78759Y-48115D02*
X77375Y-46731D01*
X80115Y-48115D02*
X78759Y-48115D01*
X81000Y-49000D02*
X80115Y-48115D01*
X78652Y-50521D02*
X80479Y-50521D01*
X77040Y-42040D02*
X77040Y-48909D01*
X76500Y-41500D02*
X77040Y-42040D01*
X80479Y-50521D02*
X81000Y-50000D01*
X77040Y-48909D02*
X78652Y-50521D01*
X79435Y-48435D02*
X80000Y-49000D01*
X78520Y-48435D02*
X79435Y-48435D01*
X77569Y-47484D02*
X78520Y-48435D01*
X82520Y-48020D02*
X82000Y-47500D01*
X83466Y-48020D02*
X82520Y-48020D01*
X83521Y-47965D02*
X83466Y-48020D01*
X83521Y-43721D02*
X83521Y-47965D01*
X82279Y-42479D02*
X83521Y-43721D01*
X81521Y-42479D02*
X82279Y-42479D01*
X81000Y-43000D02*
X81521Y-42479D01*
X78500Y-40500D02*
X78460Y-40540D01*
X78460Y-46960D02*
X79000Y-47500D01*
X78460Y-40540D02*
X78460Y-46960D01*
X79016Y-45516D02*
X80000Y-46500D01*
X79016Y-40984D02*
X79016Y-45516D01*
X79500Y-40500D02*
X79016Y-40984D01*
X82500Y-40500D02*
X83841Y-41841D01*
X83841Y-41841D02*
X83841Y-48159D01*
X83841Y-48159D02*
X83591Y-48409D01*
X83591Y-48409D02*
X81909Y-48409D01*
X81909Y-48409D02*
X81000Y-47500D01*
X79336Y-44836D02*
X81000Y-46500D01*
X79336Y-42664D02*
X79336Y-44836D01*
X81500Y-40500D02*
X79336Y-42664D01*
M02*
