G04 (created by PCBNEW-RS274X (2012-01-19 BZR 3256)-stable) date 07/10/2012 22:08:04*
G01*
G70*
G90*
%MOIN*%
G04 Gerber Fmt 3.4, Leading zero omitted, Abs format*
%FSLAX34Y34*%
G04 APERTURE LIST*
%ADD10C,0.006000*%
%ADD11C,0.012000*%
%ADD12C,0.015000*%
G04 APERTURE END LIST*
G54D10*
G54D11*
X77324Y-54270D02*
X76524Y-54270D01*
X77095Y-54070D01*
X76524Y-53870D01*
X77324Y-53870D01*
X77286Y-53356D02*
X77324Y-53413D01*
X77324Y-53527D01*
X77286Y-53584D01*
X77210Y-53613D01*
X76905Y-53613D01*
X76829Y-53584D01*
X76790Y-53527D01*
X76790Y-53413D01*
X76829Y-53356D01*
X76905Y-53327D01*
X76981Y-53327D01*
X77057Y-53613D01*
X77248Y-52727D02*
X77286Y-52756D01*
X77324Y-52842D01*
X77324Y-52899D01*
X77286Y-52984D01*
X77210Y-53042D01*
X77133Y-53070D01*
X76981Y-53099D01*
X76867Y-53099D01*
X76714Y-53070D01*
X76638Y-53042D01*
X76562Y-52984D01*
X76524Y-52899D01*
X76524Y-52842D01*
X76562Y-52756D01*
X76600Y-52727D01*
X76524Y-52213D02*
X76524Y-52327D01*
X76562Y-52384D01*
X76600Y-52413D01*
X76714Y-52470D01*
X76867Y-52499D01*
X77171Y-52499D01*
X77248Y-52470D01*
X77286Y-52442D01*
X77324Y-52384D01*
X77324Y-52270D01*
X77286Y-52213D01*
X77248Y-52184D01*
X77171Y-52156D01*
X76981Y-52156D01*
X76905Y-52184D01*
X76867Y-52213D01*
X76829Y-52270D01*
X76829Y-52384D01*
X76867Y-52442D01*
X76905Y-52470D01*
X76981Y-52499D01*
X76790Y-51642D02*
X77324Y-51642D01*
X76486Y-51785D02*
X77057Y-51928D01*
X77057Y-51556D01*
X77286Y-50614D02*
X77324Y-50671D01*
X77324Y-50785D01*
X77286Y-50843D01*
X77248Y-50871D01*
X77171Y-50900D01*
X76943Y-50900D01*
X76867Y-50871D01*
X76829Y-50843D01*
X76790Y-50785D01*
X76790Y-50671D01*
X76829Y-50614D01*
X77324Y-50271D02*
X77286Y-50329D01*
X77248Y-50357D01*
X77171Y-50386D01*
X76943Y-50386D01*
X76867Y-50357D01*
X76829Y-50329D01*
X76790Y-50271D01*
X76790Y-50186D01*
X76829Y-50129D01*
X76867Y-50100D01*
X76943Y-50071D01*
X77171Y-50071D01*
X77248Y-50100D01*
X77286Y-50129D01*
X77324Y-50186D01*
X77324Y-50271D01*
X76790Y-49814D02*
X77324Y-49814D01*
X76867Y-49814D02*
X76829Y-49786D01*
X76790Y-49728D01*
X76790Y-49643D01*
X76829Y-49586D01*
X76905Y-49557D01*
X77324Y-49557D01*
X76790Y-49271D02*
X77324Y-49271D01*
X76867Y-49271D02*
X76829Y-49243D01*
X76790Y-49185D01*
X76790Y-49100D01*
X76829Y-49043D01*
X76905Y-49014D01*
X77324Y-49014D01*
X77286Y-48500D02*
X77324Y-48557D01*
X77324Y-48671D01*
X77286Y-48728D01*
X77210Y-48757D01*
X76905Y-48757D01*
X76829Y-48728D01*
X76790Y-48671D01*
X76790Y-48557D01*
X76829Y-48500D01*
X76905Y-48471D01*
X76981Y-48471D01*
X77057Y-48757D01*
X77286Y-47957D02*
X77324Y-48014D01*
X77324Y-48128D01*
X77286Y-48186D01*
X77248Y-48214D01*
X77171Y-48243D01*
X76943Y-48243D01*
X76867Y-48214D01*
X76829Y-48186D01*
X76790Y-48128D01*
X76790Y-48014D01*
X76829Y-47957D01*
X76790Y-47786D02*
X76790Y-47557D01*
X76524Y-47700D02*
X77210Y-47700D01*
X77286Y-47672D01*
X77324Y-47614D01*
X77324Y-47557D01*
X77324Y-47271D02*
X77286Y-47329D01*
X77248Y-47357D01*
X77171Y-47386D01*
X76943Y-47386D01*
X76867Y-47357D01*
X76829Y-47329D01*
X76790Y-47271D01*
X76790Y-47186D01*
X76829Y-47129D01*
X76867Y-47100D01*
X76943Y-47071D01*
X77171Y-47071D01*
X77248Y-47100D01*
X77286Y-47129D01*
X77324Y-47186D01*
X77324Y-47271D01*
X77324Y-46814D02*
X76790Y-46814D01*
X76943Y-46814D02*
X76867Y-46786D01*
X76829Y-46757D01*
X76790Y-46700D01*
X76790Y-46643D01*
G54D12*
X86000Y-40000D02*
X76000Y-40000D01*
X86000Y-55500D02*
X86000Y-40000D01*
X76000Y-55500D02*
X86000Y-55500D01*
X76000Y-40000D02*
X76000Y-55500D01*
X84400Y-53500D02*
X84382Y-53674D01*
X84332Y-53842D01*
X84249Y-53998D01*
X84138Y-54134D01*
X84003Y-54246D01*
X83848Y-54329D01*
X83680Y-54381D01*
X83506Y-54399D01*
X83332Y-54384D01*
X83163Y-54334D01*
X83008Y-54253D01*
X82871Y-54143D01*
X82758Y-54008D01*
X82673Y-53854D01*
X82620Y-53687D01*
X82601Y-53512D01*
X82615Y-53338D01*
X82664Y-53169D01*
X82744Y-53013D01*
X82853Y-52875D01*
X82987Y-52761D01*
X83140Y-52676D01*
X83307Y-52621D01*
X83482Y-52601D01*
X83656Y-52614D01*
X83825Y-52661D01*
X83982Y-52741D01*
X84120Y-52849D01*
X84235Y-52982D01*
X84322Y-53134D01*
X84377Y-53301D01*
X84399Y-53475D01*
X84400Y-53500D01*
X79400Y-53500D02*
X79382Y-53674D01*
X79332Y-53842D01*
X79249Y-53998D01*
X79138Y-54134D01*
X79003Y-54246D01*
X78848Y-54329D01*
X78680Y-54381D01*
X78506Y-54399D01*
X78332Y-54384D01*
X78163Y-54334D01*
X78008Y-54253D01*
X77871Y-54143D01*
X77758Y-54008D01*
X77673Y-53854D01*
X77620Y-53687D01*
X77601Y-53512D01*
X77615Y-53338D01*
X77664Y-53169D01*
X77744Y-53013D01*
X77853Y-52875D01*
X77987Y-52761D01*
X78140Y-52676D01*
X78307Y-52621D01*
X78482Y-52601D01*
X78656Y-52614D01*
X78825Y-52661D01*
X78982Y-52741D01*
X79120Y-52849D01*
X79235Y-52982D01*
X79322Y-53134D01*
X79377Y-53301D01*
X79399Y-53475D01*
X79400Y-53500D01*
M02*
