M48
;DRILL file {Pcbnew (2012-01-19 BZR 3256)-stable} date 07/10/2012 21:32:38
;FORMAT={-:-/ absolute / metric / decimal}
FMAT,2
METRIC,TZ
T1C0.635
T2C1.016
T3C4.001
%
G90
G05
M71
T1
X197.025Y-120.609
T2
X194.310Y-102.870
X194.310Y-105.410
X194.310Y-107.950
X194.310Y-110.490
X194.310Y-113.030
X194.310Y-115.570
X199.390Y-102.870
X200.660Y-118.110
X200.660Y-120.650
X200.660Y-124.460
X200.660Y-127.000
X201.930Y-102.870
X203.200Y-109.220
X203.200Y-111.760
X203.200Y-118.110
X203.200Y-120.650
X203.200Y-124.460
X203.200Y-127.000
X204.470Y-102.870
X205.740Y-109.220
X205.740Y-111.760
X205.740Y-118.110
X205.740Y-120.650
X205.740Y-124.460
X205.740Y-127.000
X207.010Y-102.870
X208.280Y-109.220
X208.280Y-111.760
X208.280Y-118.110
X208.280Y-120.650
X208.280Y-124.460
X208.280Y-127.000
X209.550Y-102.870
X210.820Y-118.110
X210.820Y-120.650
X210.820Y-124.460
X210.820Y-127.000
X212.090Y-102.870
X217.170Y-102.870
X217.170Y-105.410
X217.170Y-107.950
X217.170Y-110.490
X217.170Y-113.030
X217.170Y-115.570
T3
X199.390Y-135.890
X212.090Y-135.890
T0
M30
