G04 (created by PCBNEW-RS274X (2012-01-19 BZR 3256)-stable) date 07/10/2012 22:08:04*
G01*
G70*
G90*
%MOIN*%
G04 Gerber Fmt 3.4, Leading zero omitted, Abs format*
%FSLAX34Y34*%
G04 APERTURE LIST*
%ADD10C,0.006000*%
%ADD11C,0.015000*%
%ADD12C,0.012000*%
%ADD13C,0.008000*%
G04 APERTURE END LIST*
G54D10*
G54D11*
X86000Y-40000D02*
X76000Y-40000D01*
X86000Y-55500D02*
X86000Y-40000D01*
X76000Y-55500D02*
X86000Y-55500D01*
X76000Y-40000D02*
X76000Y-55500D01*
G54D12*
X83500Y-46000D02*
X78500Y-46000D01*
X78500Y-46000D02*
X78500Y-48000D01*
X78500Y-48000D02*
X83500Y-48000D01*
X83500Y-48000D02*
X83500Y-46000D01*
X83500Y-48500D02*
X78500Y-48500D01*
X78500Y-48500D02*
X78500Y-50500D01*
X78500Y-50500D02*
X83500Y-50500D01*
X83500Y-50500D02*
X83500Y-48500D01*
G54D13*
X82500Y-42500D02*
X79500Y-42500D01*
X79500Y-44500D02*
X82500Y-44500D01*
X82500Y-44500D02*
X82500Y-42500D01*
X79500Y-42500D02*
X79500Y-44500D01*
G54D12*
X76000Y-46000D02*
X77000Y-46000D01*
X77000Y-46000D02*
X77000Y-40000D01*
X77000Y-40000D02*
X76000Y-40000D01*
X76000Y-40000D02*
X76000Y-46000D01*
X76000Y-45000D02*
X77000Y-45000D01*
X84000Y-41000D02*
X84000Y-40000D01*
X84000Y-40000D02*
X78000Y-40000D01*
X78000Y-40000D02*
X78000Y-41000D01*
X78000Y-41000D02*
X84000Y-41000D01*
X83000Y-41000D02*
X83000Y-40000D01*
X86000Y-40000D02*
X85000Y-40000D01*
X85000Y-40000D02*
X85000Y-46000D01*
X85000Y-46000D02*
X86000Y-46000D01*
X86000Y-46000D02*
X86000Y-40000D01*
X86000Y-41000D02*
X85000Y-41000D01*
M02*
